<?xml version="1.0" encoding="UTF-8"?>
<svg version="1.1" xmlns="http://www.w3.org/2000/svg" width="586" height="586">
<path d="M0 0 C193.38 0 386.76 0 586 0 C586 193.38 586 386.76 586 586 C392.62 586 199.24 586 0 586 C0 392.62 0 199.24 0 0 Z " fill="#FEFEFE" transform="translate(0,0)"/>
<path d="M0 0 C1.598431 -0.00083057 3.1968619 -0.00329705 4.79528809 -0.00730896 C8.13055407 -0.01015315 11.46514341 0.00439747 14.80029297 0.03198242 C19.05024667 0.06606344 23.29899202 0.06003411 27.5490036 0.04131985 C30.84529483 0.0306918 34.1413106 0.03973992 37.43757629 0.05470467 C39.00347574 0.0598445 40.56940446 0.05945639 42.13529968 0.05315971 C52.22099009 0.02781891 60.37421563 0.92743061 69.15625 6.31640625 C94.77565642 32.64746285 91.78633818 82.46691231 91.77685547 116.40454102 C91.77664931 120.3280122 91.80434821 124.25078308 91.83839989 128.17408657 C91.86067685 131.23772929 91.86469337 134.30120044 91.86363602 137.36491585 C91.86597541 138.81248534 91.87470383 140.26006078 91.89030075 141.70754814 C91.96876812 149.71272159 91.97111074 155.88002668 87.40625 162.62890625 C84.00257518 165.51454006 80.81404744 166.85538901 76.34375 167.12890625 C71.86103751 166.55967292 69.81254495 165.55990423 66.40625 162.62890625 C63.33803102 158.56377129 62.96819596 155.06531132 62.98974609 150.12329102 C62.98116074 149.38427048 62.97257538 148.64524994 62.96372986 147.88383484 C62.93868915 145.44589651 62.93428854 143.00836771 62.9296875 140.5703125 C62.91535986 138.86220582 62.8995997 137.15411061 62.88247681 135.44602966 C62.84062473 130.94530544 62.81564786 126.44465212 62.79498291 121.94378662 C62.75920602 114.77330301 62.69744666 107.60299676 62.63649368 100.43269157 C62.61768239 97.94817483 62.60574735 95.46370456 62.59506226 92.97914124 C62.54171588 83.81751106 62.20355401 74.76175018 61.40625 65.62890625 C60.08625 65.62890625 58.76625 65.62890625 57.40625 65.62890625 C57.61744225 66.60701767 57.61744225 66.60701767 57.832901 67.60488892 C59.5089831 76.28750287 59.7011604 84.72551121 59.71121025 93.52994919 C59.71492273 96.14548953 59.73177476 98.76066694 59.75196838 101.37612915 C59.80695462 108.80260481 59.83815396 116.22912882 59.86254883 123.65576172 C59.87843924 128.22142502 59.9086541 132.78682027 59.94731331 137.35234451 C59.95892915 139.08341248 59.96489336 140.81452829 59.96499443 142.54563522 C59.96518694 144.9621868 59.98348009 147.37799745 60.00561523 149.79443359 C60.00103806 150.50206848 59.99646088 151.20970337 59.991745 151.93878174 C60.05908883 156.57390748 60.95295683 159.70305558 63.40625 163.62890625 C64.09121237 164.2284676 64.77617474 164.82802895 65.48189354 165.44575882 C67.93706043 168.23110104 67.91068564 169.64528294 67.9209137 173.3196106 C67.93363815 174.48022507 67.94636261 175.64083954 67.95947266 176.83662415 C67.95294678 178.10628525 67.9464209 179.37594635 67.93969727 180.68408203 C67.94675665 182.03789714 67.95550175 183.39170435 67.96580505 184.74549866 C67.98831878 188.421565 67.9853532 192.09720113 67.97648358 195.77331018 C67.97137089 198.84694899 67.97866932 201.92050714 67.98595566 204.99413764 C68.00296422 212.25234835 67.99938318 219.51034893 67.98266602 226.76855469 C67.96578033 234.23948148 67.98152754 241.70982247 68.0138889 249.18068516 C68.0406581 255.6055412 68.04784003 262.03021571 68.03937382 268.45512187 C68.0344613 272.28742446 68.03656708 276.11937548 68.05716133 279.95163345 C68.07563167 283.5617825 68.06942363 287.17109705 68.04496193 290.78120232 C68.03763232 292.72348218 68.05472604 294.66580723 68.07278442 296.60801697 C67.97770393 305.45587574 66.35024982 312.58111697 60.03125 319.06640625 C53.390102 323.01947054 48.17579586 324.71274572 40.40625 323.62890625 C34.53725745 321.8191298 30.8950711 318.712617 27.40625 313.62890625 C25.00549174 308.77346922 24.03282937 305.07951572 24.04548645 299.67494202 C24.04292318 299.01150911 24.0403599 298.34807621 24.03771895 297.66453928 C24.03281222 295.46108244 24.04922124 293.2583244 24.06567383 291.05493164 C24.06652078 289.46771257 24.06604363 287.88049232 24.06434631 286.29327393 C24.06348759 281.99826712 24.08109342 277.70351302 24.10206819 273.40856481 C24.12085546 268.91492201 24.12258704 264.42127306 24.12614441 259.92759705 C24.13545885 251.42440071 24.1600645 242.92132045 24.19019288 234.41817516 C24.22375559 224.73502119 24.2402276 215.05186159 24.25527918 205.36866391 C24.28661459 185.45534664 24.33936341 165.54213376 24.40625 145.62890625 C21.76625 145.62890625 19.12625 145.62890625 16.40625 145.62890625 C16.40993717 146.45643654 16.41362434 147.28396683 16.41742325 148.13657379 C16.50581213 168.28465605 16.57197806 188.43270482 16.61349869 208.58094025 C16.63411215 218.32453887 16.66220952 228.06800796 16.70800781 237.81152344 C16.74791278 246.30530304 16.77369165 254.79898882 16.78260398 263.29285955 C16.78781253 267.7891333 16.80002914 272.28513867 16.82917023 276.78132629 C16.85639722 281.0166541 16.86468035 285.25160394 16.85868073 289.48701096 C16.85977771 291.03817679 16.86768831 292.58935577 16.8830719 294.14044571 C16.96921946 303.27761698 16.85254443 310.37050325 10.6953125 317.65234375 C4.86861982 322.38482184 -0.37124156 324.23406504 -7.9296875 324.07421875 C-14.21949942 323.02284256 -19.13187106 319.41970795 -23.09375 314.56640625 C-23.83625 313.11234375 -23.83625 313.11234375 -24.59375 311.62890625 C-25.1277155 310.60218544 -25.1277155 310.60218544 -25.67246819 309.55472279 C-27.00605486 305.3195041 -26.8621194 301.29317554 -26.83425903 296.87834167 C-26.83596788 295.88993343 -26.83767673 294.90152519 -26.83943737 293.88316518 C-26.84273405 290.56811406 -26.83172548 287.25326493 -26.82080078 283.93823242 C-26.82023671 281.56314092 -26.82055315 279.18804906 -26.82168579 276.81295776 C-26.82220077 271.03103094 -26.81352469 265.24917039 -26.80081047 259.46725871 C-26.78650969 252.73881588 -26.78351982 246.01038245 -26.78123413 239.28192655 C-26.77685815 227.2830705 -26.76355168 215.28424167 -26.74462891 203.28540039 C-26.7262676 191.63045386 -26.71211232 179.97551472 -26.70361328 168.32055664 C-26.70308783 167.60200432 -26.70256239 166.88345201 -26.70202102 166.14312538 C-26.69941092 162.53831742 -26.69688351 158.93350942 -26.69439721 155.32870138 C-26.67366773 125.4287506 -26.63829605 95.52883161 -26.59375 65.62890625 C-27.91375 65.62890625 -29.23375 65.62890625 -30.59375 65.62890625 C-30.59375 98.62890625 -30.59375 131.62890625 -30.59375 165.62890625 C-33.70328379 167.18367315 -36.15641761 166.91535062 -39.59375 166.62890625 C-44.39138083 164.18305524 -47.18686696 161.44267232 -49.59375 156.62890625 C-51.0083688 148.94604892 -50.76852267 140.9597552 -50.796875 133.1796875 C-50.80388931 131.90063034 -50.81090363 130.62157318 -50.81813049 129.30375671 C-50.83760594 125.18296847 -50.84256488 121.06223584 -50.84375 116.94140625 C-50.84419186 116.24221069 -50.84463371 115.54301514 -50.84508896 114.82263184 C-50.87272844 31.61135195 -50.87272844 31.61135195 -29.29296875 7.7421875 C-20.00284566 0.46873368 -11.34872891 -0.10751237 0 0 Z " fill="#010101" transform="translate(406.59375,225.37109375)"/>
<path d="M0 0 C1.83215149 -0.00337866 3.66430078 -0.00823994 5.4964447 -0.01449585 C9.3130351 -0.02181598 13.12903551 -0.01131909 16.94555664 0.01220703 C21.80277685 0.04071244 26.65861625 0.02424882 31.51578617 -0.00565529 C35.29172408 -0.02384351 39.06734205 -0.01791822 42.84329033 -0.00501633 C44.63279833 -0.00171509 46.42233677 -0.00565177 48.21180916 -0.01741409 C64.77327388 -0.10243621 76.81834173 3.00239273 89.01953125 14.9140625 C96.51245216 22.78541376 101.82929535 31.17333649 104.71484375 41.6640625 C105.29842651 41.46361328 105.88200928 41.26316406 106.48327637 41.05664062 C112.57832039 38.96579369 118.67901088 36.8921072 124.78320312 34.828125 C127.05812282 34.05643909 129.33158562 33.28044397 131.60351562 32.5 C134.87643496 31.37654608 138.15434488 30.26888376 141.43359375 29.1640625 C142.44224487 28.81408203 143.450896 28.46410156 144.4901123 28.10351562 C150.13438317 26.22090827 154.75958403 25.11874559 160.71484375 25.6640625 C165.51126433 28.06227279 168.31663346 30.86764192 170.71484375 35.6640625 C171.3927614 40.40948608 171.36696972 43.21756066 168.66552734 47.20483398 C165.68640776 51.15498195 162.54147462 52.52797324 157.94140625 54.07421875 C157.16503815 54.35515884 156.38867004 54.63609894 155.58877563 54.92555237 C152.97223568 55.86330062 150.3447112 56.76442016 147.71484375 57.6640625 C145.76891726 58.3466717 143.82328827 59.03012949 141.87792969 59.71435547 C136.69424035 61.52446089 131.49553168 63.28614574 126.28857422 65.02807617 C123.05547466 66.11309668 119.82865983 67.21563387 116.6015625 68.31835938 C114.52249712 69.01670277 112.4430824 69.71400717 110.36328125 70.41015625 C109.41109711 70.73817734 108.45891296 71.06619843 107.47787476 71.40415955 C101.99326209 73.21396848 97.49540324 74.16815789 91.71484375 73.6640625 C86.61974126 71.06844425 83.9607801 68.13611904 82.02807617 62.75024414 C81.32177101 60.51852491 80.64212013 58.27975162 79.96484375 56.0390625 C77.52336865 48.30236885 74.58952257 40.53874132 68.71484375 34.6640625 C68.66790552 46.51511466 68.63266956 58.36614367 68.61121941 70.21727085 C68.60090952 75.72390149 68.5869937 81.23046724 68.56396484 86.73706055 C68.46729212 110.48535912 68.53788898 134.0691713 70.48083496 157.75033569 C70.79103418 161.61273667 71.02326662 165.4751122 71.2421875 169.34375 C71.31050781 170.52952637 71.37882813 171.71530273 71.44921875 172.93701172 C71.51625 174.12568848 71.58328125 175.31436523 71.65234375 176.5390625 C71.69053223 177.20810608 71.7287207 177.87714966 71.76806641 178.56646729 C72.35680296 188.88900101 72.90299216 199.21358928 73.4375 209.5390625 C73.53244247 211.37013046 73.53244247 211.37013046 73.62930298 213.2381897 C74.16753459 223.61991949 74.16753459 223.61991949 74.40930176 228.31707764 C75.1121153 241.94469002 75.86389875 255.55774574 76.90234375 269.1640625 C77.54525896 277.93339987 77.96992636 286.68347528 78.08984375 295.4765625 C78.1158667 296.49234375 78.14188965 297.508125 78.16870117 298.5546875 C78.1866082 305.83605748 76.80081227 311.15851054 71.93359375 316.6875 C71.36640625 317.13351562 70.79921875 317.57953125 70.21484375 318.0390625 C69.64765625 318.50054688 69.08046875 318.96203125 68.49609375 319.4375 C62.80950814 323.3532629 57.50025331 323.50897229 50.71484375 322.6640625 C44.43508508 320.26932638 39.58802484 315.46695763 36.63085938 309.46337891 C35.48278755 305.95490568 35.18349939 302.53235987 34.93359375 298.875 C34.87457886 298.09943756 34.81556396 297.32387512 34.75476074 296.52481079 C34.63008941 294.86577866 34.5093006 293.20645091 34.39208984 291.546875 C34.22270911 289.15034762 34.04237314 286.7548959 33.859375 284.359375 C32.63116047 267.93546009 31.76218841 251.48711598 30.84739685 235.0434494 C30.71489287 232.66494429 30.58173907 230.28647645 30.44836426 227.90802002 C29.95530631 219.11293094 29.4670037 210.31759812 28.98620987 201.52182961 C28.76416713 197.46056331 28.54067503 193.39938757 28.31396484 189.33837891 C28.08805522 185.29111712 27.86566805 181.24367551 27.64569473 177.19608688 C27.56318917 175.68841273 27.47950515 174.18080248 27.39449692 172.67326736 C26.88725035 163.66007292 26.6320624 154.69365954 26.71484375 145.6640625 C23.08484375 145.6640625 19.45484375 145.6640625 15.71484375 145.6640625 C15.72499512 146.45353271 15.73514648 147.24300293 15.74560547 148.05639648 C15.81738733 158.30582082 15.37574518 168.49395177 14.83984375 178.7265625 C14.79504883 179.60521973 14.75025391 180.48387695 14.70410156 181.38916016 C14.08828628 193.46743792 13.34923784 205.52867299 12.46313477 217.59033203 C11.79494849 226.9035421 11.33212353 236.21911522 10.89779663 245.54534912 C10.24551965 259.38776724 9.54003167 273.23018792 8.57199097 287.05447388 C8.46044349 288.6881558 8.35616547 290.32235324 8.25979614 291.95700073 C7.65695615 302.04385938 6.91309847 311.38472582 -0.5390625 318.953125 C-7.07213762 322.73368624 -12.77703549 324.04141431 -20.28515625 322.6640625 C-26.60673258 320.1876764 -31.3138727 315.4946346 -34.40673828 309.48461914 C-35.55114661 305.8099806 -35.53375554 302.34105084 -35.46484375 298.53515625 C-35.45346878 297.35112465 -35.45346878 297.35112465 -35.44186401 296.14317322 C-35.3252953 287.32754165 -34.8874253 278.52869978 -34.41015625 269.7265625 C-34.31727252 267.95582485 -34.22466792 266.18507254 -34.13232422 264.41430664 C-33.89938687 259.97712869 -33.66007299 255.54032407 -33.41796875 251.1036377 C-33.29684298 248.87873097 -33.17732592 246.65374647 -33.05859375 244.42871094 C-32.23104847 229.01568017 -31.28770183 213.61084437 -30.3046875 198.20703125 C-30.26074608 197.51791845 -30.21680466 196.82880566 -30.17153168 196.11881065 C-29.72554871 189.12653641 -29.27792358 182.13437583 -28.82420254 175.14259911 C-27.20625127 150.19430596 -26.11589986 125.35062084 -25.72265625 100.3515625 C-25.67933192 97.74934402 -25.63571394 95.14713042 -25.59179688 92.54492188 C-25.48620774 86.25135407 -25.38420636 79.95773645 -25.28515625 73.6640625 C-24.69713226 73.4349115 -24.10910828 73.2057605 -23.50326538 72.96966553 C-17.36777184 70.57706365 -11.23625941 68.17447035 -5.10693359 65.76611328 C-2.82082487 64.8693524 -0.53372293 63.97511916 1.75439453 63.08349609 C5.04856313 61.79932867 8.33901902 60.50602751 11.62890625 59.2109375 C13.15736679 58.6185025 13.15736679 58.6185025 14.71670532 58.01409912 C25.07433734 54.0173157 25.07433734 54.0173157 32.0234375 45.65625 C33.72481541 40.75397467 33.26178877 36.24412589 31.58984375 31.4140625 C28.97790501 27.58321901 25.91160746 24.76244435 21.71484375 22.6640625 C10.98207013 21.1011973 2.39982556 25.01230035 -7.22265625 29.1015625 C-9.44236061 30.02376435 -11.66439572 30.93998569 -13.88807678 31.85255432 C-15.25992964 32.41775092 -16.62912875 32.98944811 -17.99510193 33.56871033 C-20.70131835 34.70154562 -23.1986061 35.6488995 -26.09594727 36.15649414 C-28.68251335 36.50961542 -28.68251335 36.50961542 -30.59765625 39.7265625 C-31.15453125 40.6959375 -31.71140625 41.6653125 -32.28515625 42.6640625 C-31.17611938 42.21135986 -31.17611938 42.21135986 -30.04467773 41.74951172 C-28.49115601 41.11553467 -28.49115601 41.11553467 -26.90625 40.46875 C-25.76414063 40.00251221 -24.62203125 39.53627441 -23.4453125 39.0559082 C-20.95582969 38.04053719 -18.4648558 37.02894737 -15.97265625 36.02026367 C-8.22365854 32.88580459 -8.22365854 32.88580459 -0.5390625 29.59765625 C6.50747112 26.52357086 12.949637 24.12678807 20.71484375 25.6640625 C25.14796725 27.80146133 27.84015021 30.0814783 29.71484375 34.6640625 C30.24421517 39.42840531 30.23372259 41.62630482 28.08984375 45.9140625 C22.79122161 52.04930918 15.93599757 54.37111971 8.53515625 57.21875 C7.44959442 57.64278107 6.36403259 58.06681213 5.24557495 58.50369263 C1.77957198 59.85553907 -1.6902335 61.19731401 -5.16015625 62.5390625 C-7.45467443 63.43295909 -9.74894779 64.3274844 -12.04296875 65.22265625 C-17.48601618 67.34380457 -22.93436679 69.45076746 -28.38665771 71.54803467 C-30.22562293 72.25610346 -32.06381343 72.96619028 -33.90093994 73.67901611 C-36.1310581 74.54426187 -38.36377556 75.402338 -40.59765625 76.2578125 C-41.78746094 76.71607422 -42.97726563 77.17433594 -44.203125 77.64648438 C-49.9634021 79.54832491 -54.09783272 79.75772427 -59.66015625 76.9765625 C-63.41764362 73.66639506 -65.10896311 71.21007092 -65.68359375 66.16796875 C-65.57202542 47.40589382 -61.28110736 29.60225209 -47.75 15.83984375 C-33.17308752 2.97242655 -18.72002556 -0.12321 0 0 Z " fill="#010101" transform="translate(156.28515625,225.3359375)"/>
<path d="M0 0 C8.45932928 5.20948624 14.35318767 11.77173894 18.71484375 20.671875 C19.27558594 21.77208984 19.27558594 21.77208984 19.84765625 22.89453125 C22.59058361 31.67931213 22.12670231 44.30641249 18.0390625 52.5390625 C11.00650353 63.86583889 2.39694847 71.14854318 -10.765625 74.2578125 C-22.59417938 76.20172996 -32.59415946 73.20561646 -42.28515625 66.30078125 C-49.5615278 60.3745177 -53.77878401 52.6369757 -56.28515625 43.671875 C-57.36961624 30.9105551 -56.17399541 20.72752478 -47.90625 10.48046875 C-35.77769422 -3.05090794 -16.70769993 -8.15904139 0 0 Z " fill="#020202" transform="translate(195.28515625,141.328125)"/>
<path d="M0 0 C9.33137749 5.82190899 16.7798443 13.80748894 20.0546875 24.484375 C22.31859855 36.03732317 20.98266136 47.01993518 14.4921875 56.859375 C8.16136595 65.27409197 1.06248392 71.07044588 -9.3203125 73.671875 C-21.4000123 75.31554301 -31.92350362 73.83488974 -42.0625 66.7578125 C-50.38977845 59.96255561 -56.48099216 49.65086832 -57.62109375 38.8125 C-57.66932769 26.91479392 -54.62909181 16.6454504 -46.50390625 7.6640625 C-34.08211671 -3.92960773 -15.49243612 -7.63892972 0 0 Z " fill="#030303" transform="translate(445.3203125,142.328125)"/>
<path d="M0 0 C2.375 1.625 2.375 1.625 4 4 C4.50299316 8.10777749 4.32749345 9.50875983 2 13 C2.825 13.639375 3.65 14.27875 4.5 14.9375 C7.42817877 18.52451899 7.84093437 20.34478233 7.51953125 24.859375 C6.84488037 27.63913951 5.60476923 29.24531622 3.25390625 30.87109375 C-2.50988092 33.75798195 -9.51680261 37 -16 37 C-16 35.68 -16 34.36 -16 33 C-15.34 33 -14.68 33 -14 33 C-14.13277344 32.44054687 -14.26554688 31.88109375 -14.40234375 31.3046875 C-16.03184813 23.90649974 -16.58636442 16.55429188 -17 9 C-17.99 9 -18.98 9 -20 9 C-19.67 7.35 -19.34 5.7 -19 4 C-16.96185767 3.32263519 -14.91929445 2.65856466 -12.875 2 C-11.73804688 1.62875 -10.60109375 1.2575 -9.4296875 0.875 C-6.08400855 0.0214327 -3.43154958 -0.28596247 0 0 Z " fill="#0B0B0B" transform="translate(209,68)"/>
<path d="M0 0 C2.55553836 1.99343582 2.95262535 2.62889854 3.375 5.9375 C2.96940652 9.24984673 2.23079726 10.58330297 0 13 C1.175625 13.37125 1.175625 13.37125 2.375 13.75 C5 15 5 15 6.375 16.6875 C7.31263269 20.15674096 6.91168904 22.53558163 6 26 C2.20144807 30.66844931 -1.6721879 32.42082282 -7.1875 34.3125 C-7.91130859 34.57611328 -8.63511719 34.83972656 -9.38085938 35.11132812 C-14.6544237 37 -14.6544237 37 -17 37 C-16.81566406 35.906875 -16.63132812 34.81375 -16.44140625 33.6875 C-15.77766388 28.37756104 -16.34955689 23.29513982 -16.9375 18 C-17.03740234 17.03449219 -17.13730469 16.06898438 -17.24023438 15.07421875 C-17.48548113 12.71517852 -17.7388914 10.35732811 -18 8 C-18.99 8 -19.98 8 -21 8 C-21 6.68 -21 5.36 -21 4 C-13.84682644 1.28881408 -7.69250126 -0.85472236 0 0 Z " fill="#0C0C0C" transform="translate(27,135)"/>
<path d="M0 0 C2.5 1.5625 2.5 1.5625 4 4 C3.75 7.5625 3.75 7.5625 3 11 C3 11.99 3 12.98 3 14 C3.66 14.37125 4.32 14.7425 5 15.125 C7.42172414 17.39536638 7.37171062 18.14638391 7.5 21.375 C7.54210149 24.43788325 7.05624755 25.90267112 5.5078125 28.58203125 C2.14365532 31.82566566 -1.23033691 32.9152036 -5.625 34.3125 C-6.40101562 34.57611328 -7.17703125 34.83972656 -7.9765625 35.11132812 C-13.6278612 37 -13.6278612 37 -16 37 C-16 35.68 -16 34.36 -16 33 C-15.34 33 -14.68 33 -14 33 C-14.13277344 32.45214844 -14.26554687 31.90429688 -14.40234375 31.33984375 C-16.13046395 23.58222386 -16.59874244 15.91955709 -17 8 C-17.99 8 -18.98 8 -20 8 C-20 6.68 -20 5.36 -20 4 C-5.3975265 -0.91872792 -5.3975265 -0.91872792 0 0 Z " fill="#0C0C0C" transform="translate(65,58)"/>
<path d="M0 0 C2.125 1.5625 2.125 1.5625 3 4 C2.67272727 10.32727273 2.67272727 10.32727273 0 13 C0.804375 13.474375 1.60875 13.94875 2.4375 14.4375 C5 16 5 16 6 17 C6.2734375 18.890625 6.2734375 18.890625 6.375 21.25 C6.44847656 22.40242188 6.44847656 22.40242188 6.5234375 23.578125 C5.71258406 27.32983496 3.99413998 28.64063299 1 31 C-2.02787866 32.38008708 -5.12779869 33.35985454 -8.3125 34.3125 C-9.14845703 34.57611328 -9.98441406 34.83972656 -10.84570312 35.11132812 C-12.89284046 35.75471414 -14.94587548 36.37928324 -17 37 C-16.81566406 35.8140625 -16.63132813 34.628125 -16.44140625 33.40625 C-15.96334262 29.57499576 -16.21563328 26.31221116 -16.9375 22.5 C-17.79631604 17.54883905 -18.19663775 13.01426267 -18 8 C-18.99 8 -19.98 8 -21 8 C-21 6.68 -21 5.36 -21 4 C-13.88369723 1.3027888 -7.65568854 -0.97215093 0 0 Z " fill="#0C0C0C" transform="translate(257,128)"/>
<path d="M0 0 C0.66 0.2475 1.32 0.495 2 0.75 C2.53513451 4.41949378 2.66097878 6.59703054 0.79296875 9.85546875 C-3.61447992 15.35703817 -8.35789787 17.6946642 -15 19.75 C-15.99 20.08 -16.98 20.41 -18 20.75 C-31.43706951 21.76821272 -31.43706951 21.76821272 -35.75 18.875 C-39.99126638 14.86935953 -39.99126638 14.86935953 -40.1875 12.1875 C-40 9.75 -40 9.75 -39 8.75 C-37.27813046 8.65469357 -35.55565494 8.56562866 -33.83203125 8.51049805 C-23.87545904 8.17158467 -15.41457256 6.18498025 -6.5625 1.4375 C-3 -0.25 -3 -0.25 0 0 Z " fill="#F8F8F8" transform="translate(204,179.25)"/>
<path d="M0 0 C0.66 6.6 1.32 13.2 2 20 C2.99 20 3.98 20 5 20 C5 21.32 5 22.64 5 24 C-0.75 25 -0.75 25 -3 25 C-3.556875 25.495 -4.11375 25.99 -4.6875 26.5 C-7.9638642 28.62520921 -10.17167646 28.47854044 -14 28 C-17.20610376 25.63760776 -18.26548336 23.82220696 -19 20 C-20.09724398 9.6232069 -20.09724398 9.6232069 -16.9375 5.5 C-11.22282568 0.63644739 -7.57376717 0 0 0 Z " fill="#0D0D0D" transform="translate(108,52)"/>
<path d="M0 0 C0.79921875 0.01804688 1.5984375 0.03609375 2.421875 0.0546875 C3.02515625 0.07789063 3.6284375 0.10109375 4.25 0.125 C5.42293889 6.5028552 6.54530838 12.62821562 6.25 19.125 C7.24 19.125 8.23 19.125 9.25 19.125 C8.92 20.775 8.59 22.425 8.25 24.125 C6.6103125 24.0321875 6.6103125 24.0321875 4.9375 23.9375 C1.34708675 23.76218711 1.34708675 23.76218711 -0.5625 25.5625 C-0.954375 26.078125 -1.34625 26.59375 -1.75 27.125 C-4.62470493 28.56235246 -6.56894588 28.50672649 -9.75 28.125 C-14.00235952 23.98756912 -14.88854148 20.06518675 -15.1875 14.3125 C-15.1511629 9.39245633 -13.79403176 7.00963942 -10.453125 3.5 C-7.0113924 0.7213535 -4.41758814 -0.12992906 0 0 Z " fill="#0C0C0C" transform="translate(64.75,128.875)"/>
<path d="M0 0 C0.33868777 2.20751848 0.67071689 4.41605911 1 6.625 C1.185625 7.85476562 1.37125 9.08453125 1.5625 10.3515625 C1.95402516 13.6166027 2.08080924 16.71712451 2 20 C2.99 19.67 3.98 19.34 5 19 C4.67 20.65 4.34 22.3 4 24 C2.948125 23.9175 1.89625 23.835 0.8125 23.75 C-3.65940493 24.04323967 -4.64123821 25.24409289 -8 28 C-11.0625 28.5 -11.0625 28.5 -14 28 C-17.16185007 25.60724859 -18.26599755 23.81273494 -19 20 C-19.55309076 15.42824978 -20.04019911 10.96869898 -17.8359375 6.796875 C-12.65374944 0.47194803 -7.85674072 -0.26633019 0 0 Z " fill="#090909" transform="translate(299,122)"/>
<path d="M0 0 C0.66 6.27 1.32 12.54 2 19 C2.99 19 3.98 19 5 19 C5 20.32 5 21.64 5 23 C-0.75 24 -0.75 24 -3 24 C-3.53625 24.495 -4.0725 24.99 -4.625 25.5 C-8.27910893 27.80785827 -10.71291449 27.47634283 -15 27 C-18.18940482 24.11924726 -18.8195938 20.79223211 -19.23828125 16.6328125 C-19.40776146 10.90616536 -19.07226062 7.39375488 -15 3 C-9.60972676 -0.76065575 -7.27698125 0 0 0 Z " fill="#0A0A0A" transform="translate(252,63)"/>
<path d="M0 0 C0.66 3.96 1.32 7.92 2 12 C2.680625 11.154375 3.36125 10.30875 4.0625 9.4375 C7 7 7 7 10.6875 7 C14 8 14 8 16 11 C16.51541414 14.24281398 16.88324361 17.46176041 17.2109375 20.7265625 C17.4110019 22.49264828 17.69899065 24.2482928 18 26 C18.66 26.33 19.32 26.66 20 27 C19.67 28.32 19.34 29.64 19 31 C17.35 31.33 15.7 31.66 14 32 C10.75428718 25.79081025 10.33055741 19.94170563 10 13 C8.02 13.66 6.04 14.32 4 15 C4 21.6 4 28.2 4 35 C1.525 35.495 1.525 35.495 -1 36 C-2.55220235 26.3565301 -3.83007154 16.69547093 -5 7 C-5.99 6.67 -6.98 6.34 -8 6 C-8 4.68 -8 3.36 -8 2 C-2.25 0 -2.25 0 0 0 Z " fill="#0D0D0D" transform="translate(119,37)"/>
<path d="M0 0 C4.04164064 1.39262524 7.44278527 2.77930698 9.8359375 6.46875 C10.5623443 11.47288573 10.49697186 13.39456917 7.8359375 17.71875 C5.16236059 20.56852252 2.09565513 21.82554217 -1.42578125 23.390625 C-3.52818062 24.47365681 -3.52818062 24.47365681 -4.6640625 27.71875 C-4.8290625 28.62625 -4.9940625 29.53375 -5.1640625 30.46875 C-7.4740625 30.46875 -9.7840625 30.46875 -12.1640625 30.46875 C-12.4578336 25.47464125 -12.50806336 22.31941765 -9.1640625 18.46875 C-6.25937971 16.59924672 -3.26124447 14.99461533 -0.1640625 13.46875 C-0.1640625 11.81875 -0.1640625 10.16875 -0.1640625 8.46875 C-1.8140625 8.13875 -3.4640625 7.80875 -5.1640625 7.46875 C-5.4940625 8.78875 -5.8240625 10.10875 -6.1640625 11.46875 C-9.1340625 10.97375 -9.1340625 10.97375 -12.1640625 10.46875 C-13.40072297 6.89617531 -13.05499699 4.11348199 -12.1640625 0.46875 C-8.38789592 -1.41933329 -4.01167706 -0.98481603 0 0 Z " fill="#0E0E0E" transform="translate(496.1640625,94.53125)"/>
<path d="M0 0 C2.39073445 3.82517513 2.55966552 7.59665524 3 12 C3.53625 11.360625 4.0725 10.72125 4.625 10.0625 C7.52494507 7.54412665 9.17129922 7 13 7 C15.85387337 8.92829282 16.80549257 10.31922398 17.75 13.625 C18.08073979 18.08998722 18.07958976 22.52528707 18 27 C18.99 27 19.98 27 21 27 C21 28.32 21 29.64 21 31 C18.125 31.625 18.125 31.625 15 32 C12.18802543 29.18802543 12.30097443 26.15988755 11.875 22.375 C11.78863281 21.66859375 11.70226562 20.9621875 11.61328125 20.234375 C11.40118817 18.49049859 11.19959009 16.7453516 11 15 C9.34385343 14.61781233 7.67542976 14.28604898 6 14 C4.78356708 14.99483202 4.78356708 14.99483202 4.88647461 16.94946289 C4.89171143 17.7821167 4.89694824 18.61477051 4.90234375 19.47265625 C4.90556641 20.37177734 4.90878906 21.27089844 4.91210938 22.19726562 C4.92048828 23.14279297 4.92886719 24.08832031 4.9375 25.0625 C4.94201172 26.01189453 4.94652344 26.96128906 4.95117188 27.93945312 C4.9629989 30.29303065 4.97947975 32.64648477 5 35 C2.525 35.495 2.525 35.495 0 36 C-0.67310593 31.9385397 -1.33735482 27.87567904 -2 23.8125 C-2.19078125 22.66201172 -2.3815625 21.51152344 -2.578125 20.32617188 C-2.75859375 19.21435547 -2.9390625 18.10253906 -3.125 16.95703125 C-3.29257812 15.93585205 -3.46015625 14.91467285 -3.6328125 13.86254883 C-3.97414707 11.20154628 -4.06884702 8.67857932 -4 6 C-4.99 6 -5.98 6 -7 6 C-7 4.68 -7 3.36 -7 2 C-4.69 1.34 -2.38 0.68 0 0 Z " fill="#0D0D0D" transform="translate(262,47)"/>
<path d="M0 0 C0.66 3.63 1.32 7.26 2 11 C2.515625 10.34 3.03125 9.68 3.5625 9 C6 7 6 7 9.5625 6.5 C13 7 13 7 14.671875 8.546875 C16.47295171 11.87356963 16.5651073 15.0502436 16.6875 18.75 C16.73874023 19.79607422 16.73874023 19.79607422 16.79101562 20.86328125 C16.87308295 22.57497108 16.93822919 24.2874576 17 26 C17.99 26 18.98 26 20 26 C20 27.32 20 28.64 20 30 C17.6739143 30.38063221 15.33944736 30.71269945 13 31 C11.00954348 29.00954348 11.32359911 25.30045183 11 22.5625 C10.55638533 17.63342275 10.55638533 17.63342275 9 13 C6.24358584 13.49756092 6.24358584 13.49756092 4 15 C3.91330568 16.4887186 3.89296506 17.981445 3.90234375 19.47265625 C3.90556641 20.37177734 3.90878906 21.27089844 3.91210938 22.19726562 C3.92048828 23.14279297 3.92886719 24.08832031 3.9375 25.0625 C3.94201172 26.01189453 3.94652344 26.96128906 3.95117188 27.93945312 C3.9629989 30.29303065 3.97947975 32.64648477 4 35 C1.525 35.495 1.525 35.495 -1 36 C-1.67310593 31.9385397 -2.33735482 27.87567904 -3 23.8125 C-3.19078125 22.66201172 -3.3815625 21.51152344 -3.578125 20.32617188 C-3.75859375 19.21435547 -3.9390625 18.10253906 -4.125 16.95703125 C-4.29257812 15.93585205 -4.46015625 14.91467285 -4.6328125 13.86254883 C-4.97414707 11.20154628 -5.06884702 8.67857932 -5 6 C-5.99 6 -6.98 6 -8 6 C-8 4.68 -8 3.36 -8 2 C-5.09399739 0.74335022 -3.20395416 0 0 0 Z " fill="#0B0B0B" transform="translate(310,107)"/>
<path d="M0 0 C0.98248524 4.0527516 1.08159574 7.83861737 1 12 C1.66 12 2.32 12 3 12 C3.309375 11.360625 3.61875 10.72125 3.9375 10.0625 C5 8 5 8 6 7 C12.23930636 6.53782916 12.23930636 6.53782916 14.65234375 8.00390625 C16.75306681 11.115412 16.84033733 14.54069948 17.1875 18.1875 C17.26935547 18.93708984 17.35121094 19.68667969 17.43554688 20.45898438 C17.63540784 22.30475918 17.81926538 24.15225433 18 26 C18.99 26 19.98 26 21 26 C21 27.32 21 28.64 21 30 C17.04 30.495 17.04 30.495 13 31 C11.515 22.585 11.515 22.585 10 14 C8.68 13.67 7.36 13.34 6 13 C3.80697743 14.77601843 3.80697743 14.77601843 3.77294922 17.06298828 C3.78342285 17.89040527 3.79389648 18.71782227 3.8046875 19.5703125 C3.81113281 20.46621094 3.81757812 21.36210937 3.82421875 22.28515625 C3.84097656 23.22230469 3.85773438 24.15945312 3.875 25.125 C3.88853516 26.54232422 3.88853516 26.54232422 3.90234375 27.98828125 C3.92595478 30.32577292 3.95888484 32.66276123 4 35 C1.525 35.495 1.525 35.495 -1 36 C-1.47992643 32.50010375 -1.95880162 29.00006441 -2.4375 25.5 C-2.63956055 24.02660156 -2.63956055 24.02660156 -2.84570312 22.5234375 C-3.59791919 17.01941751 -4.32389124 11.51389667 -5 6 C-5.99 5.67 -6.98 5.34 -8 5 C-8 4.01 -8 3.02 -8 2 C-5.09399739 0.74335022 -3.20395416 0 0 0 Z " fill="#0B0B0B" transform="translate(80,114)"/>
<path d="M0 0 C0.50755197 3.68650112 1.00467512 7.37433775 1.5 11.0625 C1.64308594 12.10083984 1.78617188 13.13917969 1.93359375 14.20898438 C2.64201705 19.5221591 3.18248153 24.63960518 3 30 C4.32 30 5.64 30 7 30 C7 31.32 7 32.64 7 34 C4.84377121 35.30913891 3.42047902 36 0.875 36 C-1 35 -1 35 -2.046875 32.36328125 C-4.47809474 23.78426407 -5.30654876 14.88991417 -5 6 C-5.99 6 -6.98 6 -8 6 C-7.67 4.35 -7.34 2.7 -7 1 C-4.50935112 0.31292445 -2.62113708 0 0 0 Z " fill="#101010" transform="translate(42,126)"/>
<path d="M0 0 C2.24193655 10.13641526 4.22349145 20.5916838 4 31 C4.99 31 5.98 31 7 31 C6.67 32.32 6.34 33.64 6 35 C3.03 35.495 3.03 35.495 0 36 C-1.7047337 32.96858081 -2.39883948 30.37692863 -2.8515625 26.9375 C-2.98046875 25.97585937 -3.109375 25.01421875 -3.2421875 24.0234375 C-3.43167969 22.52683594 -3.43167969 22.52683594 -3.625 21 C-3.82609375 19.50339844 -3.82609375 19.50339844 -4.03125 17.9765625 C-4.56293657 13.92923415 -5 10.09045764 -5 6 C-5.99 6 -6.98 6 -8 6 C-8 4.68 -8 3.36 -8 2 C-2.25 0 -2.25 0 0 0 Z " fill="#101010" transform="translate(271,119)"/>
<path d="M0 0 C2.97 0.495 2.97 0.495 6 1 C7.15127569 4.3990044 6.83320983 6.46572555 5.8125 9.875 C5.5340625 10.82761719 5.255625 11.78023437 4.96875 12.76171875 C4.48921875 14.36466797 4.48921875 14.36466797 4 16 C3.45094036 17.92366966 2.90190686 19.84734886 2.35620117 21.77197266 C1.57720105 24.51648767 0.78851579 27.25820651 0 30 C-3.75 31.125 -3.75 31.125 -6 30 C-5.57982689 26.31031265 -5.13575224 22.6238729 -4.6875 18.9375 C-4.56955078 17.89916016 -4.45160156 16.86082031 -4.33007812 15.79101562 C-3.61321982 10.00100628 -2.64137424 5.2161592 0 0 Z " fill="#0D0D0D" transform="translate(471,90)"/>
<path d="M0 0 C2.55851549 2.55851549 2.44600051 3.96300031 2.8515625 7.5234375 C2.98046875 8.626875 3.109375 9.7303125 3.2421875 10.8671875 C3.36851563 12.02476563 3.49484375 13.18234375 3.625 14.375 C3.7590625 15.52484375 3.893125 16.6746875 4.03125 17.859375 C4.53561138 22.27511038 5 26.55128562 5 31 C5.99 31 6.98 31 8 31 C8 32.32 8 33.64 8 35 C4.535 35.495 4.535 35.495 1 36 C-0.69833314 31.41878203 -1.56358651 26.95683741 -2.125 22.125 C-2.21136719 21.45597656 -2.29773438 20.78695312 -2.38671875 20.09765625 C-2.96060988 15.36988644 -3.07456736 10.76165848 -3 6 C-3.99 6 -4.98 6 -6 6 C-6 4.68 -6 3.36 -6 2 C-4.02 1.34 -2.04 0.68 0 0 Z " fill="#0A0A0A" transform="translate(79,49)"/>
<path d="M0 0 C0.50388084 4.08286424 1.00243268 8.16636193 1.5 12.25 C1.64308594 13.40886719 1.78617188 14.56773438 1.93359375 15.76171875 C2.06894531 16.87675781 2.20429688 17.99179688 2.34375 19.140625 C2.46943359 20.16704102 2.59511719 21.19345703 2.72460938 22.25097656 C3 25 3 25 3 29 C3.99 29 4.98 29 6 29 C6 30.32 6 31.64 6 33 C2.535 33.495 2.535 33.495 -1 34 C-3.69651985 27.27032332 -4.0661078 20.11398599 -4.85546875 12.97070312 C-4.97535156 11.96330078 -5.09523437 10.95589844 -5.21875 9.91796875 C-5.32123047 8.99781982 -5.42371094 8.0776709 -5.52929688 7.12963867 C-5.68462891 6.42685791 -5.83996094 5.72407715 -6 5 C-6.66 4.67 -7.32 4.34 -8 4 C-8 2.68 -8 1.36 -8 0 C-4.71303767 -0.79953138 -3.28976808 -1.09658936 0 0 Z " fill="#0A0A0A" transform="translate(225,61)"/>
<path d="M0 0 C4.12589075 -0.07477218 8.25151308 -0.12889223 12.37792969 -0.16479492 C13.77839031 -0.17977914 15.17880483 -0.20017379 16.57910156 -0.22631836 C31.54131277 -0.49845558 31.54131277 -0.49845558 38 3 C38.495 4.485 38.495 4.485 39 6 C33.49551996 7.12591637 33.49551996 7.12591637 31.21777344 6.54711914 C28.22253097 5.80820034 25.34810115 5.77823118 22.265625 5.68359375 C20.97011719 5.64169922 19.67460937 5.59980469 18.33984375 5.55664062 C16.97656524 5.51683329 15.61328394 5.47712094 14.25 5.4375 C12.87108125 5.39427726 11.49217474 5.35066179 10.11328125 5.30664062 C6.7422881 5.20056042 3.37122174 5.0985015 0 5 C0 3.35 0 1.7 0 0 Z " fill="#F4F4F4" transform="translate(403,189)"/>
<path d="M0 0 C1.11375 0.1546875 1.11375 0.1546875 2.25 0.3125 C4.41326531 13.29209184 4.41326531 13.29209184 2.0625 17.375 C0.25 18.3125 0.25 18.3125 -2.3125 18.25 C-4.75 17.3125 -4.75 17.3125 -6.0625 15.75 C-7.05637676 12.22625513 -7.32752101 8.91309398 -6.75 5.3125 C-4.808159 1.86033822 -4.00118449 0.45468006 0 0 Z " fill="#EFEFEF" transform="translate(291.75,126.6875)"/>
<path d="M0 0 C1.01125434 4.92986492 1.56416481 9.97988939 1 15 C0.01 16.485 0.01 16.485 -1 18 C-3.625 18.1875 -3.625 18.1875 -6 18 C-8.61470312 12.87518188 -9.633999 9.77346314 -8 4 C-5.28664855 0.35101013 -4.68889742 0 0 0 Z " fill="#F1F1F1" transform="translate(103,57)"/>
<path d="M0 0 C0.8985997 3.36974887 1.14852081 6.65441178 1.25 10.125 C1.28867188 11.39730469 1.28867188 11.39730469 1.328125 12.6953125 C1 15 1 15 -0.34765625 16.82421875 C-2 18 -2 18 -4.6875 17.6875 C-5.450625 17.460625 -6.21375 17.23375 -7 17 C-8.01646891 13.95059327 -8.19844676 11.69630097 -8.25 8.5 C-8.27578125 7.5409375 -8.3015625 6.581875 -8.328125 5.59375 C-8 3 -8 3 -6.65234375 1.16796875 C-4.38987905 -0.43126753 -2.70309845 -0.21917014 0 0 Z " fill="#F6F6F6" transform="translate(64,134)"/>
<path d="M0 0 C0.77730469 0.04382813 1.55460938 0.08765625 2.35546875 0.1328125 C2.63125045 2.56988338 2.87678367 5.00376299 3.10546875 7.4453125 C3.22728516 8.48075195 3.22728516 8.48075195 3.3515625 9.53710938 C3.52734375 11.55859375 3.52734375 11.55859375 3.35546875 15.1328125 C1.55859375 17.11328125 1.55859375 17.11328125 -0.64453125 18.1328125 C-1.63453125 18.1328125 -2.62453125 18.1328125 -3.64453125 18.1328125 C-5.79989003 13.6424817 -7.41771329 10.21372305 -6.64453125 5.1328125 C-3.74210272 0.18793426 -3.74210272 0.18793426 0 0 Z " fill="#F4F4F4" transform="translate(244.64453125,67.8671875)"/>
<path d="M0 0 C3.45079728 1.46950251 6.7335461 3.15974428 10 5 C10 6.32 10 7.64 10 9 C5.23966942 7.14876033 5.23966942 7.14876033 3.1875 5.875 C-0.18562283 4.52575087 -3.45858173 4.41204253 -7 5 C-10.21829104 6.92293518 -10.21829104 6.92293518 -13 9 C-14.32 9 -15.64 9 -17 9 C-14.10089271 2.11278065 -7.27243994 -1.25386896 0 0 Z " fill="#1C1C1C" transform="translate(171,115)"/>
<path d="M0 0 C1 1 1 1 1.0625 4.5625 C1.041875 5.696875 1.02125 6.83125 1 8 C-5.625 12 -5.625 12 -9 12 C-9.33 8.37 -9.66 4.74 -10 1 C-6.74696956 -0.62651522 -3.60774398 -0.11453156 0 0 Z " fill="#EFEFEF" transform="translate(26,153)"/>
<path d="M0 0 C1 1 1 1 1.0625 4.5625 C1.041875 5.696875 1.02125 6.83125 1 8 C-5.625 12 -5.625 12 -9 12 C-9.33 8.37 -9.66 4.74 -10 1 C-6.3980828 0.0995207 -3.67101871 -0.16315639 0 0 Z " fill="#F2F2F2" transform="translate(256,146)"/>
<path d="M0 0 C2 2 2 2 2.3125 4.9375 C2 8 2 8 0.9375 9.8125 C-1.90927247 11.55729603 -4.71846765 11.69042148 -8 12 C-8.33 8.7 -8.66 5.4 -9 2 C-5.26258387 0.13129193 -3.96172649 -0.41702384 0 0 Z " fill="#F2F2F2" transform="translate(208,86)"/>
<path d="M0 0 C1 1 1 1 1.3125 3.875 C1 7 1 7 -0.625 8.8125 C-3.41467322 10.20733661 -5.91380261 10.64929575 -9 11 C-9.33 7.7 -9.66 4.4 -10 1 C-6.23355012 -0.82941851 -4.03077875 -1.23162684 0 0 Z " fill="#F7F7F7" transform="translate(65,77)"/>
<path d="M0 0 C0.99 0 1.98 0 3 0 C2.52590017 2.56013907 1.94219578 4.08323807 0.4375 6.25 C-1.4529286 9.86647211 -1.71328887 13.04312383 -1 17 C0.14455688 19.49226022 1.53626575 21.66717353 3 24 C3 24.99 3 25.98 3 27 C1.25 26.9375 1.25 26.9375 -1 26 C-5.09691033 20.87886209 -5.67301907 16.38358369 -5.4609375 9.890625 C-4.74241936 5.38466377 -3.17350687 3.24730936 0 0 Z " fill="#0F0F0F" transform="translate(119,167)"/>
<path d="M0 0 C2.9375 0.8125 2.9375 0.8125 4.9375 2.8125 C4.5625 6.4375 4.5625 6.4375 3.9375 9.8125 C-2.48798263 11.14609073 -2.48798263 11.14609073 -5 9.6875 C-6.42316991 7.17602369 -6.48924516 5.65746772 -6.0625 2.8125 C-4.28235296 -0.15441173 -3.48497618 -0.21336589 0 0 Z " fill="#F0F0F0" transform="translate(434.0625,167.1875)"/>
<path d="M0 0 C2 2 2 2 2.3125 4.4375 C2 7 2 7 0.9375 8.875 C-2.11569315 10.64782183 -4.66411708 9.69235306 -8 9 C-9.32561852 2.61292897 -9.32561852 2.61292897 -7.9375 0 C-5.02830946 -1.5015177 -3.0821738 -0.85251616 0 0 Z " fill="#F1F1F1" transform="translate(411,168)"/>
<path d="M0 0 C1 1 1 1 1.4375 3.8125 C1 7 1 7 -1.8125 9.375 C-5 11 -5 11 -8 11 C-8 7.7 -8 4.4 -8 1 C-5.26752652 -0.36623674 -3.01801098 -0.128426 0 0 Z " fill="#EDEDED" transform="translate(206,73)"/>
<path d="M0 0 C1 1 1 1 1.25 3.875 C1 7 1 7 -0.1875 8.8125 C-2.42031739 10.27538036 -4.37344067 10.64505955 -7 11 C-8.1577506 7.52674819 -8.06866652 4.63932552 -8 1 C-5.05549278 0.01849759 -3.06481021 -0.1613058 0 0 Z " fill="#EFEFEF" transform="translate(23,139)"/>
<path d="M0 0 C3.5 0.125 3.5 0.125 4.5 1.125 C4.875 4 4.875 4 4.5 7.125 C1.25566237 9.82861469 -0.20892052 10.125 -4.5 10.125 C-4.52689216 8.64593108 -4.54634621 7.16672517 -4.5625 5.6875 C-4.57410156 4.86378906 -4.58570313 4.04007812 -4.59765625 3.19140625 C-4.42921386 -0.37283479 -3.69396427 0.1319273 0 0 Z " fill="#F3F3F3" transform="translate(58.5,62.875)"/>
<path d="M0 0 C1 1 1 1 1.25 3.375 C1 6 1 6 -0.125 7.75 C-2.65977861 9.43985241 -5.00575483 9.66730609 -8 10 C-8 7.03 -8 4.06 -8 1 C-5.26752652 -0.36623674 -3.01801098 -0.128426 0 0 Z " fill="#F8F8F8" transform="translate(253,133)"/>
<path d="M0 0 C2.33944736 0.28730055 4.6739143 0.61936779 7 1 C7.6875 3.3125 7.6875 3.3125 8 6 C6.875 7.8125 6.875 7.8125 5 9 C2.4375 9.375 2.4375 9.375 0 9 C-2 6 -2 6 -1.6875 3.375 C-1 1 -1 1 0 0 Z " fill="#131313" transform="translate(463,124)"/>
<path d="M0 0 C0.99 0.66 1.98 1.32 3 2 C3 2.99 3 3.98 3 5 C2.319375 4.835 1.63875 4.67 0.9375 4.5 C-5.45175075 3.36037983 -5.45175075 3.36037983 -11.3125 5.5 C-11.869375 5.995 -12.42625 6.49 -13 7 C-13.66 7 -14.32 7 -15 7 C-14.73852205 3.77510528 -14.39459008 2.3699282 -12 0.125 C-7.85307165 -1.43009813 -4.26676179 -1.06269535 0 0 Z " fill="#181818" transform="translate(174,125)"/>
<path d="M0 0 C-0.165 0.66 -0.33 1.32 -0.5 2 C-1.13780476 5.82682858 -1.25075281 9.11333138 -1 13 C0.33358994 15.009245 0.33358994 15.009245 2 16 C1.67 16.99 1.34 17.98 1 19 C-1.624338 18.00456145 -2.97605244 17.02807645 -4.8125 14.875 C-6.42194131 10.97845788 -6.11613205 8.01975377 -5 4 C-2.7 0 -2.7 0 0 0 Z " fill="#171717" transform="translate(128,171)"/>
<path d="M0 0 C2.5 0.25 2.5 0.25 4.5 2.25 C4.75 4.75 4.75 4.75 4.5 7.25 C2.5 9.25 2.5 9.25 0 9.5 C-2.5 9.25 -2.5 9.25 -4.5 7.25 C-4.75 4.75 -4.75 4.75 -4.5 2.25 C-2.5 0.25 -2.5 0.25 0 0 Z " fill="#0E0E0E" transform="translate(485.5,127.75)"/>
<path d="M0 0 C2.625 0.375 2.625 0.375 5 1 C4.67 2.65 4.34 4.3 4 6 C2.35 6.33 0.7 6.66 -1 7 C-1.625 4.625 -1.625 4.625 -2 2 C-1.34 1.34 -0.68 0.68 0 0 Z " fill="#1D1D1D" transform="translate(127,128)"/>
<path d="M0 0 C2.625 0.375 2.625 0.375 5 1 C4.67 2.65 4.34 4.3 4 6 C2.35 6.33 0.7 6.66 -1 7 C-1.625 4.625 -1.625 4.625 -2 2 C-1.34 1.34 -0.68 0.68 0 0 Z " fill="#1C1C1C" transform="translate(310,62)"/>
<path d="M0 0 C1.67542976 0.28604898 3.34385343 0.61781233 5 1 C4.67 2.65 4.34 4.3 4 6 C2.125 6.625 2.125 6.625 0 7 C-0.66 6.34 -1.32 5.68 -2 5 C-1.46428571 1.46428571 -1.46428571 1.46428571 0 0 Z " fill="#171717" transform="translate(346,125)"/>
<path d="M0 0 C2.0625 0.4375 2.0625 0.4375 4 1 C4.625 2.875 4.625 2.875 5 5 C4.34 5.66 3.68 6.32 3 7 C0.375 6.625 0.375 6.625 -2 6 C-1.125 1.125 -1.125 1.125 0 0 Z " fill="#171717" transform="translate(357,121)"/>
<path d="M0 0 C1.67542976 0.28604898 3.34385343 0.61781233 5 1 C4.67 2.65 4.34 4.3 4 6 C2.125 6.625 2.125 6.625 0 7 C-0.66 6.34 -1.32 5.68 -2 5 C-1.46428571 1.46428571 -1.46428571 1.46428571 0 0 Z " fill="#151515" transform="translate(155,55)"/>
<path d="M0 0 C1.67542976 0.28604898 3.34385343 0.61781233 5 1 C4.67 2.65 4.34 4.3 4 6 C2.125 6.625 2.125 6.625 0 7 C-0.66 6.34 -1.32 5.68 -2 5 C-1.46428571 1.46428571 -1.46428571 1.46428571 0 0 Z " fill="#131313" transform="translate(166,52)"/>
<path d="M0 0 C1.32 0 2.64 0 4 0 C4 1.98 4 3.96 4 6 C2.35 6.33 0.7 6.66 -1 7 C-1.625 4.625 -1.625 4.625 -2 2 C-1.34 1.34 -0.68 0.68 0 0 Z " fill="#0E0E0E" transform="translate(106,135)"/>
<path d="M0 0 C2.125 0.375 2.125 0.375 4 1 C4 2.65 4 4.3 4 6 C2.35 6.33 0.7 6.66 -1 7 C-1.625 4.625 -1.625 4.625 -2 2 C-1.34 1.34 -0.68 0.68 0 0 Z " fill="#0E0E0E" transform="translate(145,58)"/>
<path d="M0 0 C2.125 0.375 2.125 0.375 4 1 C4 2.65 4 4.3 4 6 C2.35 6.33 0.7 6.66 -1 7 C-1.625 4.625 -1.625 4.625 -2 2 C-1.34 1.34 -0.68 0.68 0 0 Z " fill="#090909" transform="translate(336,128)"/>
<path d="M0 0 C2.125 0.375 2.125 0.375 4 1 C3.67 2.65 3.34 4.3 3 6 C1.35 6.33 -0.3 6.66 -2 7 C-2.125 4.625 -2.125 4.625 -2 2 C-1.34 1.34 -0.68 0.68 0 0 Z " fill="#0C0C0C" transform="translate(300,65)"/>
<path d="M0 0 C1.2065625 0.0309375 1.2065625 0.0309375 2.4375 0.0625 C2.480221 1.72861905 2.47813832 3.39632885 2.4375 5.0625 C1.4375 6.0625 1.4375 6.0625 -1.125 6.125 C-2.3315625 6.0940625 -2.3315625 6.0940625 -3.5625 6.0625 C-3.605221 4.39638095 -3.60313832 2.72867115 -3.5625 1.0625 C-2.5625 0.0625 -2.5625 0.0625 0 0 Z " fill="#090909" transform="translate(118.5625,131.9375)"/>
<path d="M0 0 C1.2065625 0.0309375 1.2065625 0.0309375 2.4375 0.0625 C2.480221 1.72861905 2.47813832 3.39632885 2.4375 5.0625 C1.4375 6.0625 1.4375 6.0625 -1.125 6.125 C-2.3315625 6.0940625 -2.3315625 6.0940625 -3.5625 6.0625 C-3.605221 4.39638095 -3.60313832 2.72867115 -3.5625 1.0625 C-2.5625 0.0625 -2.5625 0.0625 0 0 Z " fill="#0A0A0A" transform="translate(290.5625,68.9375)"/>
</svg>
