<?xml version="1.0" encoding="UTF-8"?>
<svg version="1.1" xmlns="http://www.w3.org/2000/svg" width="512" height="512">
<path d="M0 0 C168.96 0 337.92 0 512 0 C512 168.96 512 337.92 512 512 C343.04 512 174.08 512 0 512 C0 343.04 0 174.08 0 0 Z " fill="#FDFDFD" transform="translate(0,0)"/>
<path d="M0 0 C1.77006912 -0.01210762 1.77006912 -0.01210762 3.57589722 -0.02445984 C6.06881257 -0.03825553 8.56174645 -0.04899775 11.0546875 -0.05688477 C13.5856689 -0.06839217 16.11662628 -0.08882405 18.64746094 -0.1184082 C22.32763968 -0.16137403 26.00710063 -0.17729447 29.6875 -0.1875 C30.80150177 -0.20500809 31.91550354 -0.22251617 33.06326294 -0.24055481 C42.3177635 -0.21542904 51.07927664 1.47507481 59.1171875 6.23828125 C69.22383753 17.78873843 73.13768607 31.83323477 75.45703125 46.6796875 C75.61797933 47.70456866 75.61797933 47.70456866 75.78217888 48.7501545 C78.29308378 65.11250425 78.46820092 81.37720013 78.31866455 97.89672852 C78.29971119 100.98720233 78.31496077 104.07717196 78.3297739 107.16763973 C78.34036643 110.18849012 78.33139752 113.20903808 78.31638908 116.22986031 C78.31127053 117.64865788 78.31161051 119.06748773 78.31793404 120.48628044 C78.34282239 129.37928279 77.9922027 137.2012262 72.0546875 144.23828125 C68.33703288 145.84591568 64.79149754 146.45621287 60.7421875 146.23828125 C56.05540159 144.15526529 54.24681301 141.90784494 52.34627342 137.19898796 C51.33895813 133.92950298 51.30291217 130.67036371 51.30981445 127.28344727 C51.29452698 126.14074623 51.29452698 126.14074623 51.27893066 124.97496033 C51.24896421 122.48062632 51.23956009 119.98667735 51.23046875 117.4921875 C51.21360989 115.75340007 51.19545802 114.01462473 51.17607117 112.27586365 C51.12869603 107.71721172 51.09880609 103.15860886 51.07263184 98.59979248 C51.04276311 93.94077874 50.99625453 89.28193384 50.95117188 84.62304688 C50.86528094 75.49488022 50.79787265 66.36667868 50.7421875 57.23828125 C49.7521875 57.23828125 48.7621875 57.23828125 47.7421875 57.23828125 C47.88257446 57.8417337 48.02296143 58.44518616 48.16760254 59.06692505 C49.79424456 66.84427354 50.04996916 74.48141873 50.07771301 82.39739609 C50.08612072 84.71855088 50.10672505 87.03933402 50.13024902 89.36038208 C50.18616943 95.11458375 50.22191144 100.86887505 50.25787354 106.62322998 C50.28916427 111.51136552 50.32834892 116.39931298 50.37812805 121.2872963 C50.39810791 123.5678489 50.40649258 125.84825416 50.41442871 128.12887573 C50.42740159 129.52846819 50.44092198 130.92805572 50.45507812 132.32763672 C50.46601501 134.15317581 50.46601501 134.15317581 50.47717285 136.01559448 C50.73641322 139.1680636 51.39343493 141.39797934 52.7421875 144.23828125 C53.4021875 144.23828125 54.0621875 144.23828125 54.7421875 144.23828125 C56.88786106 147.45679159 56.99507913 148.30647848 57.00961304 152.01148987 C57.01814301 152.99403244 57.02667297 153.97657501 57.03546143 154.9888916 C57.03455505 156.06578247 57.03364868 157.14267334 57.03271484 158.25219727 C57.03943207 159.38749374 57.04614929 160.52279022 57.05307007 161.69248962 C57.07212142 165.45909972 57.07597852 169.22553216 57.078125 172.9921875 C57.08455023 175.60953342 57.09127839 178.22687862 57.09829712 180.84422302 C57.11109462 186.3396012 57.11406172 191.8349312 57.11279297 197.33032227 C57.11159467 203.66337601 57.13263165 209.99608723 57.1642803 216.32905442 C57.19370089 222.43568401 57.20076574 228.54215085 57.19957352 234.64884758 C57.20192877 237.23909842 57.21074793 239.82935198 57.22623825 242.41955757 C57.2459235 246.05285752 57.24004811 249.68528834 57.22802734 253.31860352 C57.23926636 254.38132477 57.25050537 255.44404602 57.26208496 256.53897095 C57.19344512 264.73978445 55.60012376 271.70346535 50.3671875 278.17578125 C45.11382427 282.30342379 40.92972374 283.87288335 34.2734375 283.65234375 C28.56511785 282.71857541 24.88201859 279.67806789 21.3671875 275.23828125 C18.75593627 270.41750974 17.4917765 266.84241149 17.50167847 261.32206726 C17.49892914 260.13721237 17.49617981 258.95235748 17.49334717 257.7315979 C17.504133 255.79490738 17.504133 255.79490738 17.51513672 253.8190918 C17.51570116 252.43906157 17.51538363 251.05903074 17.51425171 249.67900085 C17.51367848 245.93969395 17.52542788 242.20051567 17.53939962 238.46123862 C17.55191201 234.55081063 17.55307788 230.64037961 17.55545044 226.72993469 C17.56166371 219.32813564 17.57807247 211.92639575 17.59814942 204.52462274 C17.62051316 196.09662226 17.63150305 187.66861894 17.64154029 179.24059618 C17.66243883 161.90645699 17.69761184 144.57237538 17.7421875 127.23828125 C15.7621875 127.23828125 13.7821875 127.23828125 11.7421875 127.23828125 C11.74679646 127.95573957 11.75140543 128.6731979 11.75615406 129.41239738 C11.86675059 146.89904065 11.9494009 164.38559467 12.00124836 181.87251091 C12.02699022 190.32919784 12.06206341 198.78565079 12.11938477 207.2421875 C12.16934335 214.6160432 12.20150771 221.98972937 12.21262997 229.36374962 C12.2191278 233.26549853 12.23431435 237.16676261 12.27083778 241.06835556 C12.30499497 244.747283 12.31520134 248.42552994 12.30772591 252.10460091 C12.30973874 254.08516791 12.33653012 256.06566227 12.36428833 258.04603577 C12.32027747 265.73071798 11.37093476 271.91294507 6.7421875 278.23828125 C1.83269991 282.36809134 -3.7922358 283.66833542 -10.1015625 283.5859375 C-15.28704241 282.7498728 -19.15791006 279.42501809 -22.6328125 275.67578125 C-23.4371875 274.46921875 -23.4371875 274.46921875 -24.2578125 273.23828125 C-24.61636763 272.70392582 -24.97492275 272.16957039 -25.34434319 271.61902237 C-26.71680418 268.0420283 -26.52538132 264.48630356 -26.49832153 260.70892334 C-26.50003038 259.83979254 -26.50173923 258.97066174 -26.50349987 258.07519364 C-26.50679871 255.15779308 -26.49578452 252.24062162 -26.48486328 249.32324219 C-26.48429925 247.23400884 -26.48461556 245.1447751 -26.48574829 243.05554199 C-26.48632313 237.37823938 -26.47454755 231.70102093 -26.46060038 226.02373791 C-26.4481149 220.09267285 -26.44692424 214.16160596 -26.44454956 208.23052979 C-26.43832837 196.99669952 -26.4219089 185.76290809 -26.40185058 174.52909493 C-26.37951147 161.74085912 -26.36850315 148.95262147 -26.35845971 136.16437101 C-26.33754324 109.85565288 -26.30235483 83.54696924 -26.2578125 57.23828125 C-27.2478125 57.23828125 -28.2378125 57.23828125 -29.2578125 57.23828125 C-29.2578125 86.27828125 -29.2578125 115.31828125 -29.2578125 145.23828125 C-32.40692729 146.81283864 -34.77790066 146.58627243 -38.2578125 146.23828125 C-42.88529745 143.21261801 -45.21470078 140.3277091 -47.2578125 135.23828125 C-47.66589317 132.3200024 -47.65826116 129.44468012 -47.63012695 126.50170898 C-47.63377762 125.64389328 -47.63742828 124.78607758 -47.64118958 123.90226746 C-47.64927304 121.07526642 -47.63569533 118.24884294 -47.62109375 115.421875 C-47.62057455 113.44377137 -47.62109458 111.46566721 -47.62260437 109.48756409 C-47.62251472 105.34083349 -47.61210668 101.19429759 -47.59399414 97.04760742 C-47.57141143 91.76456921 -47.57074497 86.48181786 -47.57751179 81.19874477 C-47.58087589 77.11061614 -47.57417433 73.02255135 -47.56438255 68.93443489 C-47.56056437 66.98863117 -47.55936811 65.04282029 -47.5609684 63.09701347 C-47.56383166 42.25913555 -46.19596187 25.12610678 -31.2578125 9.23828125 C-22.02073281 0.05640323 -12.47098402 0.08180309 0 0 Z " fill="#030303" transform="translate(358.2578125,196.76171875)"/>
<path d="M0 0 C1.48296735 -0.00644291 2.96593349 -0.01317233 4.44889832 -0.02017212 C7.54612165 -0.03209012 10.6432339 -0.03585861 13.74047852 -0.03466797 C17.67741888 -0.03446504 21.61363534 -0.06176435 25.55040455 -0.09621239 C28.61080593 -0.11862757 31.67103706 -0.12250109 34.73151207 -0.12144852 C36.18135764 -0.12378266 37.63120951 -0.13248033 39.08097267 -0.14811325 C54.13366044 -0.29525037 65.57412661 3.05080365 76.8203125 13.296875 C81.89013524 18.53212382 89.66796875 28.62296345 89.66796875 36.3359375 C90.66127197 35.98289551 91.6545752 35.62985352 92.67797852 35.26611328 C96.38782471 33.94819352 100.09867071 32.63310872 103.80981445 31.31884766 C105.4113227 30.7512531 107.01256424 30.1829054 108.61352539 29.61376953 C110.92393223 28.79257918 113.23530668 27.97416431 115.546875 27.15625 C116.2544545 26.90408722 116.962034 26.65192444 117.6910553 26.39212036 C132.74679657 21.07754256 132.74679657 21.07754256 139.66796875 22.3359375 C143.21405562 24.29760258 145.42597001 26.97293939 147.66796875 30.3359375 C148.11755973 34.90677909 148.09075992 37.38006182 146.23046875 41.5859375 C141.08198324 47.11114146 132.8824651 49.10335467 125.85546875 51.5234375 C125.02160645 51.810979 124.18774414 52.09852051 123.32861328 52.39477539 C120.44409837 53.38224117 117.55601506 54.3588508 114.66796875 55.3359375 C113.51474121 55.73103516 112.36151367 56.12613281 111.17333984 56.53320312 C107.46874316 57.79706075 103.75702963 59.03769702 100.04296875 60.2734375 C98.87016357 60.67522217 97.6973584 61.07700684 96.48901367 61.4909668 C82.81700458 65.97418427 82.81700458 65.97418427 76.66796875 64.3359375 C71.03361613 60.50312681 69.05222007 53.98163393 67.04296875 47.7734375 C66.49606623 46.12370087 65.94151472 44.47647797 65.37890625 42.83203125 C65.14478027 42.11200928 64.9106543 41.3919873 64.66943359 40.65014648 C63.35884421 37.6216051 61.517312 35.06150852 59.66796875 32.3359375 C59.59707017 43.96244731 59.5444739 55.58890216 59.51253223 67.21558762 C59.49716783 72.61987932 59.47649867 78.02401868 59.44165039 83.42822266 C59.27111579 110.59771335 59.98971143 137.47851421 62.16461182 164.56492519 C62.70255095 171.40262928 62.99589882 178.22862036 63.16796875 185.0859375 C63.41016658 193.75390359 63.83277898 202.38991978 64.390625 211.04296875 C64.45829071 212.09404816 64.52595642 213.14512756 64.59567261 214.22805786 C64.93749012 219.49426345 65.28935736 224.75962723 65.65234375 230.02441406 C66.27751586 239.27739548 66.8203661 248.52587885 66.9453125 257.80078125 C66.97486778 258.9242672 66.97486778 258.9242672 67.00502014 260.07044983 C67.02453457 266.57668786 65.56220206 271.96814586 61.41796875 277.1484375 C56.06795462 281.40413056 50.93474552 283.03282078 44.1640625 282.81640625 C38.49650964 281.72546884 34.94048931 277.97566454 31.515625 273.5625 C29.45707671 269.96765668 28.91960413 267.44033152 28.48046875 263.3359375 C28.40642822 262.66385254 28.3323877 261.99176758 28.25610352 261.29931641 C27.5326572 254.17996511 27.25215316 247.02457334 27.0090332 239.875 C26.96202271 238.53695312 26.96202271 238.53695312 26.9140625 237.171875 C26.89013428 236.38345215 26.86620605 235.5950293 26.84155273 234.78271484 C26.70814895 232.28246806 26.70814895 232.28246806 26.18164062 229.63769531 C25.50946501 225.31711406 25.36192732 221.03756237 25.203125 216.671875 C25.12556432 214.73917338 25.04792452 212.80647493 24.97021484 210.8737793 C24.91157257 209.36405045 24.91157257 209.36405045 24.85174561 207.82382202 C24.29515362 193.53744754 23.69852113 179.27559747 22.54296875 165.0234375 C21.5318563 152.44932249 21.47028405 139.94382834 21.66796875 127.3359375 C18.36796875 127.3359375 15.06796875 127.3359375 11.66796875 127.3359375 C11.67844238 128.30080078 11.68891602 129.26566406 11.69970703 130.25976562 C11.73696573 133.9726157 11.75923735 137.68545114 11.77783203 141.3984375 C11.78765652 142.98049732 11.80111383 144.56254032 11.81884766 146.14453125 C11.93385866 156.69848175 11.44134543 167.06854468 10.48417664 177.57893372 C9.73685284 185.9730467 9.24807717 194.36775882 8.8515625 202.78515625 C8.8202272 203.44723713 8.78889191 204.10931801 8.75660706 204.79146194 C8.56570028 208.84975492 8.38088305 212.90830755 8.19824219 216.96697998 C7.98110777 221.78007859 7.75900537 226.59294744 7.53468323 231.40571594 C7.41669228 233.94564279 7.30075944 236.48566651 7.18736267 239.02580261 C5.74767758 270.29951126 5.74767758 270.29951126 -1.33203125 278.3359375 C-6.30574314 282.10747258 -11.48066251 283.09108774 -17.6484375 282.8515625 C-22.17674853 281.981494 -25.24181248 279.68080682 -28.33203125 276.3359375 C-29.42257813 275.17384766 -29.42257813 275.17384766 -30.53515625 273.98828125 C-33.79584988 268.88156978 -32.77953947 262.32806333 -32.64453125 256.5234375 C-32.62544533 255.15960369 -32.60764206 253.79575137 -32.59106445 252.43188477 C-32.53424482 248.39893972 -32.43575843 244.36794633 -32.33203125 240.3359375 C-32.30979492 239.30533203 -32.28755859 238.27472656 -32.26464844 237.21289062 C-31.86307927 219.84352563 -30.53428724 202.50541532 -29.33757019 185.176651 C-29.07172266 181.30999039 -28.81173265 177.44294247 -28.55200195 173.5758667 C-28.39941929 171.32849001 -28.24394414 169.08130856 -28.08618164 166.83428955 C-26.57111326 145.17433018 -25.78662488 123.53960197 -25.26757812 101.83508301 C-25.16455434 97.58265171 -25.05457929 93.33039965 -24.9453125 89.078125 C-24.73435404 80.83088339 -24.53065161 72.58348547 -24.33203125 64.3359375 C-21.17916618 63.0670615 -18.0252215 61.80088991 -14.87109375 60.53515625 C-13.98945557 60.18030151 -13.10781738 59.82544678 -12.19946289 59.45983887 C-6.73214873 57.26762469 -1.2406384 55.16680684 4.29296875 53.1484375 C16.74361099 49.119859 16.74361099 49.119859 25.66796875 40.3359375 C27.12398882 34.3177212 26.85196304 30.85486093 23.66796875 25.3359375 C20.12461054 21.93970835 17.82698093 20.74909044 12.91796875 20.7109375 C4.24288363 20.9669559 -3.38799142 24.11070616 -11.33203125 27.3359375 C-12.35296875 27.74972656 -13.37390625 28.16351563 -14.42578125 28.58984375 C-16.05763067 29.25585458 -17.68694785 29.9281385 -19.3125 30.609375 C-21.33203125 31.3359375 -21.33203125 31.3359375 -24.83203125 31.7734375 C-25.65703125 31.9590625 -26.48203125 32.1446875 -27.33203125 32.3359375 C-28.78494398 34.79849435 -28.78494398 34.79849435 -29.33203125 37.3359375 C-28.29820313 36.79453125 -27.264375 36.253125 -26.19921875 35.6953125 C-20.09529626 32.65006476 -13.7837793 30.12597017 -7.45703125 27.5859375 C-6.24144531 27.07933594 -5.02585938 26.57273438 -3.7734375 26.05078125 C4.03747554 22.92473083 11.45037369 20.22669694 19.60546875 23.5234375 C22.13638264 25.74757395 23.42883069 27.16925135 24.66796875 30.3359375 C24.94749648 34.85770967 24.40310218 38.24591207 21.85546875 42.0234375 C13.62285957 47.99611475 3.88620027 51.60606076 -5.58203125 55.1484375 C-6.69304199 55.56786621 -7.80405273 55.98729492 -8.94873047 56.41943359 C-11.25573433 57.28998263 -13.56351919 58.15846471 -15.87207031 59.02490234 C-19.28346553 60.31753516 -22.67983659 61.6438749 -26.07421875 62.98046875 C-28.2017653 63.8074399 -30.32936721 64.63426866 -32.45703125 65.4609375 C-33.43317383 65.85128174 -34.40931641 66.24162598 -35.41503906 66.64379883 C-40.98406547 68.78195921 -45.3576547 69.97699339 -51.33203125 69.3359375 C-54.65521028 67.82831767 -56.769753 65.23047108 -58.70703125 62.1484375 C-61.67503732 48.7924102 -57.26552847 33.91349517 -50.61328125 22.34765625 C-42.8925008 10.90887702 -31.60175265 3.69711289 -18.19537354 0.77566528 C-12.17919166 -0.14824882 -6.07378644 0.0062498 0 0 Z " fill="#030303" transform="translate(138.33203125,196.6640625)"/>
<path d="M0 0 C7.76952298 5.0121573 15.23849048 11.92461661 18 21 C18.9432062 31.72622868 18.84305892 42.22889866 12.3515625 51.3046875 C9.27930263 54.96725057 5.98553913 58.34297391 2 61 C1.44699219 61.37125 0.89398438 61.7425 0.32421875 62.125 C-7.26497154 66.36905205 -16.58061004 66.20767592 -25 65 C-34.83570166 62.13260623 -41.61278357 55.9876711 -46.59765625 47.17578125 C-51.06979546 37.64601386 -51.470686 28.33395291 -48.03515625 18.37890625 C-43.83365448 8.72337954 -37.53320596 2.69534524 -27.875 -1.375 C-19.06325576 -4.30407771 -8.22296902 -4.85431574 0 0 Z " fill="#060606" transform="translate(389,124)"/>
<path d="M0 0 C7.22192914 5.25115623 15.31653805 12.90020568 17 22 C17.12041097 24.63784028 17.18508041 27.23765018 17.1875 29.875 C17.19974609 30.56980469 17.21199219 31.26460937 17.22460938 31.98046875 C17.25043718 41.12351121 13.56672505 48.25521457 7.296875 54.76953125 C-0.67074522 61.85784203 -9.01793489 65.58850874 -19.7734375 65.375 C-28.83997738 64.32126171 -37.05434377 59.90120812 -43 53 C-45.22865938 49.7764034 -47.17651243 46.46694929 -49 43 C-49.37898438 42.36964844 -49.75796875 41.73929688 -50.1484375 41.08984375 C-53.51244931 32.8341267 -50.78055288 21.95439607 -47.5 14.0625 C-43.00666574 5.67053749 -34.9076673 0.05227302 -26.14453125 -3.1875 C-17.02497715 -5.54385684 -8.17037371 -4.77071478 0 0 Z " fill="#050505" transform="translate(172,124)"/>
<path d="M0 0 C1.7109375 1.19921875 1.7109375 1.19921875 3 3 C3.07421875 5.48046875 3.07421875 5.48046875 2.6875 8.1875 C2.56761719 9.08855469 2.44773437 9.98960938 2.32421875 10.91796875 C2.21722656 11.60503906 2.11023438 12.29210938 2 13 C3.32 13.66 4.64 14.32 6 15 C6.125 22.625 6.125 22.625 5 26 C-0.84874164 29.91076574 -7.14439324 31.78368267 -14 33 C-13.979375 31.80375 -13.95875 30.6075 -13.9375 29.375 C-13.93310331 26.8556951 -14.05686771 24.68011913 -14.5 22.1875 C-15.2406592 17.4657976 -15.07638165 12.76960994 -15 8 C-15.99 8 -16.98 8 -18 8 C-17.67 6.35 -17.34 4.7 -17 3 C-5.96441948 -0.73033708 -5.96441948 -0.73033708 0 0 Z " fill="#191919" transform="translate(57,50)"/>
<path d="M0 0 C2 2 2 2 2.25 5.4375 C2 9 2 9 0 12 C0.61875 12.12375 1.2375 12.2475 1.875 12.375 C4 13 4 13 6 15 C6 19.94030906 5.87114754 22.01716687 2.5625 25.75 C-2.6231156 29.45401114 -8.63443613 32 -15 32 C-15.33 23.75 -15.66 15.5 -16 7 C-16.99 7 -17.98 7 -19 7 C-19 5.68 -19 4.36 -19 3 C-12.74712225 0.46260033 -6.77825216 -0.9866265 0 0 Z " fill="#1A1A1A" transform="translate(24,118)"/>
<path d="M0 0 C2 2 2 2 2.25 5.4375 C2 9 2 9 0 12 C1.65 12.66 3.3 13.32 5 14 C5.44057029 18.49381693 5.68288122 21.86186464 3.3125 25.8125 C-1.79581807 29.18591759 -8.77350642 32 -15 32 C-15.33 23.75 -15.66 15.5 -16 7 C-16.99 7 -17.98 7 -19 7 C-19 5.68 -19 4.36 -19 3 C-12.67751333 0.13698717 -6.95315031 -0.9013343 0 0 Z " fill="#161616" transform="translate(225,112)"/>
<path d="M0 0 C2 2 2 2 2.1875 5.4375 C2 9 2 9 1 12 C1.99 12.33 2.98 12.66 4 13 C5.16343227 15.32686453 5.19895988 16.84721413 5.25 19.4375 C5.27578125 20.21996094 5.3015625 21.00242187 5.328125 21.80859375 C4.91216267 24.58662791 4.22266244 25.31838039 2 27 C-3.4618768 29.76913334 -8.91215388 31.47062208 -15 32 C-14.98839844 31.45214844 -14.97679687 30.90429688 -14.96484375 30.33984375 C-14.87586155 22.5221215 -15.41820729 14.7918667 -16 7 C-16.66 7 -17.32 7 -18 7 C-17.67 5.35 -17.34 3.7 -17 2 C-11.51994831 -0.36975208 -5.88727255 -0.65414139 0 0 Z " fill="#171717" transform="translate(184,60)"/>
<path d="M0 0 C0.94343331 6.72196234 0.94343331 6.72196234 -1.46484375 9.984375 C-9.41585706 17.35283882 -17.20754406 18.32012573 -27.765625 18.49609375 C-31.63480674 17.9026323 -33.27855882 16.77128442 -36 14 C-36.875 10.8125 -36.875 10.8125 -37 8 C-35.17216671 6.17216671 -32.5721162 6.65584181 -30.12011719 6.45458984 C-22.24424219 5.79220694 -15.72806536 4.6402202 -8.578125 1.0234375 C-5.56886531 -0.17114741 -3.20913159 -0.17828509 0 0 Z " fill="#F1F1F1" transform="translate(180,157)"/>
<path d="M0 0 C0.495 8.415 0.495 8.415 1 17 C1.99 17 2.98 17 4 17 C4 18.32 4 19.64 4 21 C2.72125 21.12375 1.4425 21.2475 0.125 21.375 C-3.34790936 21.69042399 -3.34790936 21.69042399 -6 24 C-9.94245817 24.43805091 -12.12497559 24.64475483 -15.375 22.25 C-18.5466099 17.85854013 -18.84571022 12.26219692 -18 7 C-12.76503858 0.16546704 -8.08499904 -0.23779409 0 0 Z " fill="#191919" transform="translate(95,46)"/>
<path d="M0 0 C1.60875 0.020625 3.2175 0.04125 4.875 0.0625 C5.37 8.4775 5.37 8.4775 5.875 17.0625 C6.535 17.0625 7.195 17.0625 7.875 17.0625 C7.875 18.3825 7.875 19.7025 7.875 21.0625 C6.76125 21.18625 5.6475 21.31 4.5 21.4375 C0.84396323 21.7090813 0.84396323 21.7090813 -1.125 24.0625 C-3.81339385 24.33241906 -6.41641936 24.14987357 -9.125 24.0625 C-12.26789318 19.44637565 -13.88837343 15.9295868 -13.65625 10.28125 C-12.70774564 6.31984942 -10.1394727 3.68649696 -7.125 1.0625 C-4.60024538 -0.19987731 -2.81299534 -0.03606404 0 0 Z " fill="#1B1B1B" transform="translate(56.125,112.9375)"/>
<path d="M0 0 C0.8320582 5.72040011 1.12036664 11.22240116 1 17 C1.66 17 2.32 17 3 17 C3 18.32 3 19.64 3 21 C2.36191406 21.13277344 1.72382813 21.26554687 1.06640625 21.40234375 C-0.17302734 21.66724609 -0.17302734 21.66724609 -1.4375 21.9375 C-2.26121094 22.11152344 -3.08492188 22.28554687 -3.93359375 22.46484375 C-5.97661204 22.80752994 -5.97661204 22.80752994 -7 24 C-10.375 24.3125 -10.375 24.3125 -14 24 C-17.55593336 20.68112886 -17.90990883 17.23875356 -18.25 12.5625 C-17.89901719 7.56099501 -16.20312567 5.34895908 -12.9375 1.6875 C-8.6812992 -0.75755152 -4.79840605 -0.33542256 0 0 Z " fill="#181818" transform="translate(262,107)"/>
<path d="M0 0 C1.52106634 3.04213267 1.37429338 6.28047572 1.5625 9.625 C1.60568359 10.33140625 1.64886719 11.0378125 1.69335938 11.765625 C1.79944751 13.51018537 1.90022889 15.25506697 2 17 C2.99 17 3.98 17 5 17 C4.67 18.32 4.34 19.64 4 21 C2.906875 21.12375 1.81375 21.2475 0.6875 21.375 C-3.07381802 21.75464801 -3.07381802 21.75464801 -6 24 C-9.5 24.375 -9.5 24.375 -13 24 C-16.53680128 20.69898547 -16.90547374 17.27610444 -17.25 12.625 C-16.96911063 8.5521041 -16.29645691 6.3681368 -14 3 C-9.28593511 -0.28888248 -5.53479783 -0.28628265 0 0 Z " fill="#1A1A1A" transform="translate(220,55)"/>
<path d="M0 0 C1.4783226 2.95664519 1.06032783 5.74229737 1 9 C1.66 9 2.32 9 3 9 C3 8.34 3 7.68 3 7 C6.24153166 4.8389789 7.23692901 4.35752447 11 5 C13.3125 6.75 13.3125 6.75 15 10 C15.32956151 14.02274293 15.23117987 17.97361728 15 22 C15.66 22 16.32 22 17 22 C17 23.32 17 24.64 17 26 C15.35 26.33 13.7 26.66 12 27 C8.22244666 22.27805833 8.69903025 17.74071928 9 12 C7.02 12 5.04 12 3 12 C3 17.94 3 23.88 3 30 C1.35 29.67 -0.3 29.34 -2 29 C-3.91958262 20.60182604 -4.22588024 12.59599799 -4 4 C-4.99 4 -5.98 4 -7 4 C-7 2.68 -7 1.36 -7 0 C-3.98968256 -0.93423645 -3.13349732 -1.04449911 0 0 Z " fill="#1C1C1C" transform="translate(230,42)"/>
<path d="M0 0 C3.79590222 2.97241103 5.92964377 6.02121105 6.703125 10.85546875 C6.83762726 15.32094364 6.10312352 18.19740667 3.765625 22.04296875 C-3.59248472 29.7707227 -16.66741164 32.88423506 -26.421875 36.66796875 C-27.96631451 37.27105259 -29.51058671 37.87456507 -31.0546875 38.47851562 C-34.80017465 39.94244413 -38.54787169 41.40056978 -42.296875 42.85546875 C-42.626875 42.19546875 -42.956875 41.53546875 -43.296875 40.85546875 C-40.62670855 37.563433 -37.44805702 36.56495859 -33.5390625 35.11328125 C-32.87657501 34.86303192 -32.21408752 34.61278259 -31.53152466 34.35494995 C-29.41445243 33.55571283 -27.29370094 32.76699105 -25.171875 31.98046875 C-10.05879227 27.34076535 -10.05879227 27.34076535 1.765625 17.91796875 C3.0829906 13.61457447 3.10347343 10.45686245 2.015625 6.10546875 C0.8651919 3.74927213 0.8651919 3.74927213 -1.296875 2.54296875 C-11.37918375 0.23243966 -19.24420764 3.28372707 -28.546875 7.16796875 C-29.79886281 7.67405351 -31.05146504 8.17862103 -32.3046875 8.68164062 C-36.8008467 10.50669449 -41.24459045 12.31888528 -45.56933594 14.52416992 C-48.296875 15.85546875 -48.296875 15.85546875 -50.296875 15.85546875 C-49.84375 13.57421875 -49.84375 13.57421875 -48.296875 10.85546875 C-45.53136884 9.26710766 -42.57090019 8.34100562 -39.546875 7.35546875 C-37.80979659 6.76070643 -36.07281809 6.16565224 -34.3359375 5.5703125 C-33.47774414 5.28269043 -32.61955078 4.99506836 -31.73535156 4.69873047 C-29.58749063 3.95596799 -27.48645272 3.15524422 -25.3828125 2.296875 C-17.47462595 -0.85390361 -8.15500046 -4.06363118 0 0 Z " fill="#E2E2E2" transform="translate(159.296875,218.14453125)"/>
<path d="M0 0 C2.30865423 1.19967568 3.86792886 2.22145782 5.5625 4.19921875 C6.55500069 7.40888473 6.4485469 9.9718956 5.5625 13.19921875 C3.10857466 16.51923539 1.09867177 17.94690262 -2.625 19.69921875 C-5.63947277 20.9630447 -5.63947277 20.9630447 -6.8125 23.88671875 C-7.01875 24.64984375 -7.225 25.41296875 -7.4375 26.19921875 C-9.4175 26.19921875 -11.3975 26.19921875 -13.4375 26.19921875 C-13.747893 22.24170802 -13.82429324 19.86866859 -11.8125 16.38671875 C-9.12453734 13.91096367 -6.95468971 13.07851618 -3.4375 12.19921875 C-3.7675 10.54921875 -4.0975 8.89921875 -4.4375 7.19921875 C-5.4275 7.19921875 -6.4175 7.19921875 -7.4375 7.19921875 C-7.7675 7.85921875 -8.0975 8.51921875 -8.4375 9.19921875 C-10.10361905 9.24193975 -11.77132885 9.23985707 -13.4375 9.19921875 C-14.4375 8.19921875 -14.4375 8.19921875 -14.53515625 6.3515625 C-14.50260417 4.30078125 -14.47005208 2.25 -14.4375 0.19921875 C-10.04445793 -1.99730228 -4.56702714 -1.50038552 0 0 Z " fill="#171717" transform="translate(436.4375,82.80078125)"/>
<path d="M0 0 C0.66 2.97 1.32 5.94 2 9 C2.99 8.34 3.98 7.68 5 7 C8.5625 6.75 8.5625 6.75 12 7 C15.40208828 10.40208828 15.05433827 14.77178592 15.0625 19.375 C15.041875 20.57125 15.02125 21.7675 15 23 C15.66 23 16.32 23 17 23 C17 24.32 17 25.64 17 27 C15.35 27.33 13.7 27.66 12 28 C9.54970669 22.28264895 8.66733709 18.20970773 9 12 C7.35 12.33 5.7 12.66 4 13 C4 18.94 4 24.88 4 31 C2.35 31 0.7 31 -1 31 C-1.50579714 27.95919579 -2.00480759 24.91753354 -2.5 21.875 C-2.64308594 21.0190625 -2.78617187 20.163125 -2.93359375 19.28125 C-3.65695734 14.80328495 -4.17918816 10.55436565 -4 6 C-4.99 6 -5.98 6 -7 6 C-6.67 4.35 -6.34 2.7 -6 1 C-3 0 -3 0 0 0 Z " fill="#1A1A1A" transform="translate(104,32)"/>
<path d="M0 0 C1.98 0 3.96 0 6 0 C6.66 2.64 7.32 5.28 8 8 C8.556875 7.505 9.11375 7.01 9.6875 6.5 C12.45122422 4.70731402 13.76822531 4.41993788 17 5 C19.46963303 7.41671232 19.97794744 8.75653979 20.29296875 12.234375 C20.25816406 13.39453125 20.22335937 14.5546875 20.1875 15.75 C20.16042969 16.92046875 20.13335937 18.0909375 20.10546875 19.296875 C20.07066406 20.18890625 20.03585937 21.0809375 20 22 C20.99 22 21.98 22 23 22 C23 23.32 23 24.64 23 26 C20.69 26 18.38 26 16 26 C15.34 21.05 14.68 16.1 14 11 C12.35 11.33 10.7 11.66 9 12 C9 17.94 9 23.88 9 30 C7.68 30.33 6.36 30.66 5 31 C3.01281019 22.2350735 1.49196544 14.05054166 2 5 C1.01 5 0.02 5 -1 5 C-0.67 3.35 -0.34 1.7 0 0 Z " fill="#131313" transform="translate(265,94)"/>
<path d="M0 0 C1.98 0 3.96 0 6 0 C7.1577506 3.47325181 7.06866652 6.36067448 7 10 C7.66 10 8.32 10 9 10 C9.66 8.68 10.32 7.36 11 6 C13.64 6 16.28 6 19 6 C21.03219488 9.40351338 21.36891039 12.3232927 21.625 16.25 C21.69976562 17.32765625 21.77453125 18.4053125 21.8515625 19.515625 C21.92503906 20.74539062 21.92503906 20.74539062 22 22 C22.66 22 23.32 22 24 22 C24 23.32 24 24.64 24 26 C21.69 26 19.38 26 17 26 C16.66179834 24.4176994 16.32964061 22.83410625 16 21.25 C15.814375 20.36828125 15.62875 19.4865625 15.4375 18.578125 C15 16 15 16 15 12 C13.35 12.33 11.7 12.66 10 13 C9.67 18.61 9.34 24.22 9 30 C7.68 30.33 6.36 30.66 5 31 C4.49418146 27.60500696 3.99637756 24.20888518 3.5 20.8125 C3.35691406 19.85279297 3.21382813 18.89308594 3.06640625 17.90429688 C2.93105469 16.97294922 2.79570313 16.04160156 2.65625 15.08203125 C2.46772461 13.80162964 2.46772461 13.80162964 2.27539062 12.49536133 C1.99727444 9.97530325 1.952392 7.53314218 2 5 C1.01 4.67 0.02 4.34 -1 4 C-0.67 2.68 -0.34 1.36 0 0 Z " fill="#141414" transform="translate(64,100)"/>
<path d="M0 0 C1.44796872 8.73952546 2.29211698 17.13911833 2 26 C3.32 26 4.64 26 6 26 C6 27.32 6 28.64 6 30 C3.69 30.33 1.38 30.66 -1 31 C-4.14824231 22.08988025 -5.15134615 14.45072633 -5 5 C-5.66 5 -6.32 5 -7 5 C-7 3.68 -7 2.36 -7 1 C-4 0 -4 0 0 0 Z " fill="#1F1F1F" transform="translate(37,110)"/>
<path d="M0 0 C2.10435896 9.16899261 3.47545004 17.54382689 3 27 C3.99 27.33 4.98 27.66 6 28 C5.67 28.99 5.34 29.98 5 31 C3.02 31 1.04 31 -1 31 C-3.70968037 22.19353881 -4.36706108 14.19012194 -4 5 C-4.99 5 -5.98 5 -7 5 C-7 3.68 -7 2.36 -7 1 C-4 0 -4 0 0 0 Z " fill="#181818" transform="translate(237,104)"/>
<path d="M0 0 C1.98 0 3.96 0 6 0 C6.83784949 9.21634444 3.78582369 17.33409845 1 26 C-0.65 26.33 -2.3 26.66 -4 27 C-5.4716234 22.11104977 -4.56267325 17.84401426 -3.6875 12.9375 C-3.55666016 12.13505859 -3.42582031 11.33261719 -3.29101562 10.50585938 C-2.62450797 6.62594769 -1.89291434 3.48787446 0 0 Z " fill="#1C1C1C" transform="translate(411,79)"/>
<path d="M0 0 C4.43080188 7.78092038 3.13621799 18.32745456 3 27 C3.99 27 4.98 27 6 27 C6 28.32 6 29.64 6 31 C4.02 31 2.04 31 0 31 C-2.79976422 22.09005853 -4.1662955 14.34950242 -4 5 C-4.66 5 -5.32 5 -6 5 C-6 3.68 -6 2.36 -6 1 C-4 0 -4 0 0 0 Z " fill="#1B1B1B" transform="translate(70,43)"/>
<path d="M0 0 C2.31 0 4.62 0 7 0 C8.3213258 8.7419859 9.33165588 17.137418 9 26 C9.99 26 10.98 26 12 26 C11.67 27.32 11.34 28.64 11 30 C9.02 30 7.04 30 5 30 C3.37648882 21.67822883 1.83059829 13.44441598 1 5 C0.69295146 3.32829127 0.37437149 1.6579309 0 0 Z " fill="#181818" transform="translate(190,53)"/>
<path d="M0 0 C4.56237931 -0.08719631 9.12454386 -0.14045922 13.6875 -0.1875 C14.98107422 -0.21263672 16.27464844 -0.23777344 17.60742188 -0.26367188 C18.85458984 -0.27333984 20.10175781 -0.28300781 21.38671875 -0.29296875 C22.53358154 -0.3086792 23.68044434 -0.32438965 24.86206055 -0.34057617 C28.37142172 0.04031225 30.22482418 0.84461239 33 3 C33.495 4.485 33.495 4.485 34 6 C22.78 5.67 11.56 5.34 0 5 C0 3.35 0 1.7 0 0 Z " fill="#E8E8E8" transform="translate(352,165)"/>
<path d="M0 0 C0.495 1.98 0.495 1.98 1 4 C0.01 3.67 -0.98 3.34 -2 3 C-10.87509079 1.72478037 -18.19943465 4.95106179 -26.25 8.3125 C-27.50198781 8.81858476 -28.75459004 9.32315228 -30.0078125 9.82617188 C-34.5039717 11.65122574 -38.94771545 13.46341653 -43.27246094 15.66870117 C-46 17 -46 17 -48 17 C-47.546875 14.71875 -47.546875 14.71875 -46 12 C-43.23449384 10.41163891 -40.27402519 9.48553687 -37.25 8.5 C-35.51292159 7.90523768 -33.77594309 7.31018349 -32.0390625 6.71484375 C-31.18086914 6.42722168 -30.32267578 6.13959961 -29.43847656 5.84326172 C-27.29061563 5.10049924 -25.18957772 4.29977547 -23.0859375 3.44140625 C-15.16482927 0.28547938 -8.50835288 -0.63600644 0 0 Z " fill="#DEDEDE" transform="translate(157,217)"/>
<path d="M0 0 C1.02766017 3.08298051 1.16598738 5.33130426 1.1875 8.5625 C1.20167969 9.53316406 1.21585937 10.50382812 1.23046875 11.50390625 C1 14 1 14 -1 16 C-4.29714793 15.67028521 -5.6226839 15.3773161 -8 13 C-8.6043214 8.93456513 -8.54686884 5.18008538 -6.8125 1.4375 C-4.44098326 -0.4433581 -2.95061143 -0.31898502 0 0 Z " fill="#E5E5E5" transform="translate(257,111)"/>
<path d="M0 0 C0.763125 0.0825 1.52625 0.165 2.3125 0.25 C3.2685073 5.03003652 3.63601874 9.3972189 3.3125 14.25 C0.3125 16.25 0.3125 16.25 -3.6875 16.25 C-6.20009156 12.48111266 -6.26081422 8.6215209 -5.6875 4.25 C-4.15169519 1.01672672 -3.59306259 0.33423838 0 0 Z " fill="#E4E4E4" transform="translate(213.6875,58.75)"/>
<path d="M0 0 C1.02766017 3.08298051 1.16598738 5.33130426 1.1875 8.5625 C1.20167969 9.53316406 1.21585938 10.50382812 1.23046875 11.50390625 C1 14 1 14 -1 16 C-3.5 15.875 -3.5 15.875 -6 15 C-7.98160959 12.54657861 -8.03663272 10.65809465 -8.375 7.5 C-8 4 -8 4 -6.25 1.5625 C-4 0 -4 0 0 0 Z " fill="#E0E0E0" transform="translate(90,50)"/>
<path d="M0 0 C2.4375 0.1875 2.4375 0.1875 3.4375 1.1875 C3.56287741 3.33057896 3.61324364 5.47828886 3.625 7.625 C3.63917969 8.79933594 3.65335938 9.97367188 3.66796875 11.18359375 C3.4375 14.1875 3.4375 14.1875 1.4375 16.1875 C-1.1875 15.8125 -1.1875 15.8125 -3.5625 15.1875 C-4.5432664 12.24520079 -4.72738128 10.1966216 -4.75 7.125 C-4.76417969 6.24714844 -4.77835938 5.36929688 -4.79296875 4.46484375 C-4.44640631 1.04033694 -3.38234129 0.24748839 0 0 Z " fill="#EAEAEA" transform="translate(53.5625,116.8125)"/>
<path d="M0 0 C0.99 0 1.98 0 3 0 C2.47731534 2.76276177 1.89130413 5.3260876 1 8 C0.55136942 14.60230856 0.55136942 14.60230856 4 20 C4 21.32 4 22.64 4 24 C2.25 23.9375 2.25 23.9375 0 23 C-3.66746548 18.21192006 -4.64235503 14.3909277 -4.39453125 8.37890625 C-3.77735766 4.6575328 -2.55121047 2.76988565 0 0 Z " fill="#2D2D2D" transform="translate(103,146)"/>
<path d="M0 0 C2.65373701 1.0849792 4.62607362 2.34857295 7 4 C7 4.99 7 5.98 7 7 C2.25 6.125 2.25 6.125 0 5 C-4.14310176 4.58409017 -7.78864532 4.23493389 -11.375 6.5 C-11.91125 6.995 -12.4475 7.49 -13 8 C-13.99 8 -14.98 8 -16 8 C-13.3274408 -0.24039087 -7.95412468 -1.15718506 0 0 Z " fill="#2E2E2E" transform="translate(151,101)"/>
<path d="M0 0 C0 0.66 0 1.32 0 2 C-9.57 5.63 -19.14 9.26 -29 13 C-28 9 -28 9 -26.12988281 7.84326172 C-25.32905273 7.54178223 -24.52822266 7.24030273 -23.703125 6.9296875 C-22.38828125 6.42115234 -22.38828125 6.42115234 -21.046875 5.90234375 C-20.12390625 5.56332031 -19.2009375 5.22429687 -18.25 4.875 C-16.88875 4.35486328 -16.88875 4.35486328 -15.5 3.82421875 C-13.79860129 3.17500082 -12.09473144 2.53219614 -10.38769531 1.89794922 C-8.69834375 1.26262866 -7.03190275 0.56477212 -5.38574219 -0.17529297 C-3 -1 -3 -1 0 0 Z " fill="#D4D4D4" transform="translate(145,248)"/>
<path d="M0 0 C3.3 0 6.6 0 10 0 C10.3125 3.3125 10.3125 3.3125 10 7 C6.78102913 9.77189158 5.3064427 10 1 10 C0.67 6.7 0.34 3.4 0 0 Z " fill="#E1E1E1" transform="translate(215,128)"/>
<path d="M0 0 C1.23556641 0.01740234 1.23556641 0.01740234 2.49609375 0.03515625 C3.32238281 0.04417969 4.14867187 0.05320313 5 0.0625 C5.63808594 0.07410156 6.27617187 0.08570313 6.93359375 0.09765625 C7.24609375 3.41015625 7.24609375 3.41015625 6.93359375 7.09765625 C3.71462288 9.86954783 2.24003645 10.09765625 -2.06640625 10.09765625 C-2.26052806 8.61934404 -2.44652756 7.13996309 -2.62890625 5.66015625 C-2.73332031 4.83644531 -2.83773438 4.01273438 -2.9453125 3.1640625 C-2.98527344 2.48214844 -3.02523438 1.80023438 -3.06640625 1.09765625 C-2.06640625 0.09765625 -2.06640625 0.09765625 0 0 Z " fill="#E1E1E1" transform="translate(17.06640625,133.90234375)"/>
<path d="M0 0 C1 1 1 1 1.09765625 2.84765625 C1.04882812 5.92382812 1.04882812 5.92382812 1 9 C-1.95664519 10.4783226 -4.74229737 10.06032783 -8 10 C-8.29296875 3.9453125 -8.29296875 3.9453125 -8 2 C-4.77786243 -0.14809171 -3.72224599 -0.29386153 0 0 Z " fill="#E6E6E6" transform="translate(182,75)"/>
<path d="M0 0 C1 1 1 1 1.375 3.875 C1 7 1 7 -1.25 8.875 C-4 10 -4 10 -8 10 C-8.33 7.03 -8.66 4.06 -9 1 C-6.01787087 -0.49106457 -3.28390342 -0.11941467 0 0 Z " fill="#E7E7E7" transform="translate(57,67)"/>
<path d="M0 0 C6.57692308 0.57692308 6.57692308 0.57692308 8 2 C8.125 5 8.125 5 8 8 C7 9 7 9 5.15234375 9.09765625 C3.1015625 9.06510417 1.05078125 9.03255208 -1 9 C-1.625 5.625 -1.625 5.625 -2 2 C-1.34 1.34 -0.68 0.68 0 0 Z " fill="#E2E2E2" transform="translate(353,146)"/>
<path d="M0 0 C2.5 0.25 2.5 0.25 4.5 2.25 C4.625 5.875 4.625 5.875 4.5 9.25 C1.125 9.875 1.125 9.875 -2.5 10.25 C-4.5 8.25 -4.5 8.25 -4.75 5.25 C-4.43608753 1.48305032 -3.83691092 0.38369109 0 0 Z " fill="#E1E1E1" transform="translate(378.5,145.75)"/>
<path d="M0 0 C0.33 1.32 0.66 2.64 1 4 C0.01 3.67 -0.98 3.34 -2 3 C-8.92732606 2.21162894 -14.28309017 3.50083134 -20.65234375 6.22265625 C-23 7 -23 7 -26 6 C-24.54808023 3.09616046 -22.77637614 2.94453083 -19.75 1.875 C-13.08849965 -0.28678497 -6.94192011 -0.40307923 0 0 Z " fill="#E0E0E0" transform="translate(157,217)"/>
<path d="M0 0 C2.64 0 5.28 0 8 0 C8.25 2.8125 8.25 2.8125 8 6 C6.25 7.875 6.25 7.875 4 9 C2.68 9 1.36 9 0 9 C0 6.03 0 3.06 0 0 Z " fill="#E6E6E6" transform="translate(173,64)"/>
<path d="M0 0 C1.134375 0.020625 2.26875 0.04125 3.4375 0.0625 C3.6875 2.875 3.6875 2.875 3.4375 6.0625 C1.6875 7.9375 1.6875 7.9375 -0.5625 9.0625 C-1.8825 9.0625 -3.2025 9.0625 -4.5625 9.0625 C-4.66015625 2.91015625 -4.66015625 2.91015625 -4.5625 1.0625 C-3.5625 0.0625 -3.5625 0.0625 0 0 Z " fill="#E8E8E8" transform="translate(51.5625,54.9375)"/>
<path d="M0 0 C3 0.125 3 0.125 4 1.125 C4.3125 3.5 4.3125 3.5 4 6.125 C2.25 7.9375 2.25 7.9375 0 9.125 C-1.32 9.125 -2.64 9.125 -4 9.125 C-4.09765625 2.97265625 -4.09765625 2.97265625 -4 1.125 C-3 0.125 -3 0.125 0 0 Z " fill="#E8E8E8" transform="translate(218,115.875)"/>
<path d="M0 0 C2.64 0 5.28 0 8 0 C8.3125 2.8125 8.3125 2.8125 8 6 C5.61107499 7.88599343 4.08148442 9 1 9 C-0.4783226 6.04335481 -0.06032783 3.25770263 0 0 Z " fill="#E5E5E5" transform="translate(13,122)"/>
<path d="M0 0 C0.88429687 -0.01417969 1.76859375 -0.02835937 2.6796875 -0.04296875 C5.125 0.1875 5.125 0.1875 8.125 2.1875 C8.125 2.8475 8.125 3.5075 8.125 4.1875 C7.38894531 4.24808594 6.65289062 4.30867188 5.89453125 4.37109375 C4.91871094 4.45488281 3.94289062 4.53867188 2.9375 4.625 C1.97457031 4.70621094 1.01164063 4.78742188 0.01953125 4.87109375 C-2.66149602 5.16416151 -5.2412986 5.61453754 -7.875 6.1875 C-5.51055059 0.03993153 -5.51055059 0.03993153 0 0 Z " fill="#252525" transform="translate(146.875,108.8125)"/>
<path d="M0 0 C0.66 0 1.32 0 2 0 C2.06058594 0.81984375 2.12117188 1.6396875 2.18359375 2.484375 C2.26738281 3.56203125 2.35117188 4.6396875 2.4375 5.75 C2.51871094 6.81734375 2.59992188 7.8846875 2.68359375 8.984375 C2.94090773 11.43679962 3.31812218 13.63921291 4 16 C1.53199953 14.84826645 -0.04783565 13.95216435 -2 12 C-2.52941176 3.79411765 -2.52941176 3.79411765 0 0 Z " fill="#1F1F1F" transform="translate(109,150)"/>
<path d="M0 0 C3 0.125 3 0.125 4 1.125 C4.1875 3.5625 4.1875 3.5625 4 6.125 C3.34 6.785 2.68 7.445 2 8.125 C-2.55555556 7.56944444 -2.55555556 7.56944444 -4 6.125 C-4.125 3.625 -4.125 3.625 -4 1.125 C-3 0.125 -3 0.125 0 0 Z " fill="#1A1A1A" transform="translate(424,111.875)"/>
<path d="M0 0 C1.134375 0.020625 2.26875 0.04125 3.4375 0.0625 C3.48004356 2.06204746 3.47830783 4.06291636 3.4375 6.0625 C2.4375 7.0625 2.4375 7.0625 -0.625 7.125 C-1.594375 7.104375 -2.56375 7.08375 -3.5625 7.0625 C-3.94383299 5.0710944 -4.27575582 3.06970923 -4.5625 1.0625 C-3.5625 0.0625 -3.5625 0.0625 0 0 Z " fill="#181818" transform="translate(407.5625,108.9375)"/>
<path d="M0 0 C0.99 0 1.98 0 3 0 C3.22527296 3.45745022 3.42733544 6.91587025 3.625 10.375 C3.68945312 11.35984375 3.75390625 12.3446875 3.8203125 13.359375 C3.871875 14.30039062 3.9234375 15.24140625 3.9765625 16.2109375 C4.02893066 17.08024902 4.08129883 17.94956055 4.13525391 18.84521484 C4 21 4 21 2 23 C1.66324721 20.10452736 1.33048266 17.20868928 1 14.3125 C0.90460938 13.49587891 0.80921875 12.67925781 0.7109375 11.83789062 C0.26129478 7.87139948 -0.13034543 3.99997537 0 0 Z " fill="#F1F1F1" transform="translate(406,254)"/>
<path d="M0 0 C0 0.66 0 1.32 0 2 C-1.4562545 2.67119549 -2.91507867 3.33681807 -4.375 4 C-5.59316406 4.556875 -5.59316406 4.556875 -6.8359375 5.125 C-9 6 -9 6 -11 6 C-10.375 3.625 -10.375 3.625 -9 1 C-5.37169613 -0.69835501 -3.84489875 -1.28163292 0 0 Z " fill="#DDDDDD" transform="translate(120,228)"/>
<path d="M0 0 C1.2065625 0.0309375 1.2065625 0.0309375 2.4375 0.0625 C2.480221 1.72861905 2.47813832 3.39632885 2.4375 5.0625 C1.4375 6.0625 1.4375 6.0625 -1.125 6.125 C-2.3315625 6.0940625 -2.3315625 6.0940625 -3.5625 6.0625 C-3.605221 4.39638095 -3.60313832 2.72867115 -3.5625 1.0625 C-2.5625 0.0625 -2.5625 0.0625 0 0 Z " fill="#424242" transform="translate(103.5625,114.9375)"/>
<path d="M0 0 C1.65 0 3.3 0 5 0 C5 1.65 5 3.3 5 5 C3.125 5.625 3.125 5.625 1 6 C0.34 5.34 -0.32 4.68 -1 4 C-0.625 1.875 -0.625 1.875 0 0 Z " fill="#2F2F2F" transform="translate(144,46)"/>
<path d="M0 0 C1.32 0 2.64 0 4 0 C4 1.98 4 3.96 4 6 C2.35 6 0.7 6 -1 6 C-1.042721 4.33388095 -1.04063832 2.66617115 -1 1 C-0.67 0.67 -0.34 0.34 0 0 Z " fill="#222222" transform="translate(92,118)"/>
<path d="M0 0 C1.67542976 0.28604898 3.34385343 0.61781233 5 1 C5 2.32 5 3.64 5 5 C3.35 5.33 1.7 5.66 0 6 C-0.38218767 4.34385343 -0.71395102 2.67542976 -1 1 C-0.67 0.67 -0.34 0.34 0 0 Z " fill="#343434" transform="translate(110,112)"/>
<path d="M0 0 C3.63 0 7.26 0 11 0 C11.33 1.32 11.66 2.64 12 4 C7.71 3.34 3.42 2.68 -1 2 C-0.67 1.34 -0.34 0.68 0 0 Z " fill="#F5F5F5" transform="translate(146,217)"/>
<path d="M0 0 C2.475 0.495 2.475 0.495 5 1 C4.67 2.65 4.34 4.3 4 6 C2.68 6 1.36 6 0 6 C0 4.02 0 2.04 0 0 Z " fill="#2D2D2D" transform="translate(311,106)"/>
<path d="M0 0 C1.32 0 2.64 0 4 0 C4 1.65 4 3.3 4 5 C2.35 5.33 0.7 5.66 -1 6 C-1.042721 4.33388095 -1.04063832 2.66617115 -1 1 C-0.67 0.67 -0.34 0.34 0 0 Z " fill="#232323" transform="translate(252,60)"/>
<path d="M0 0 C1.32 0 2.64 0 4 0 C4 1.65 4 3.3 4 5 C2.35 5.33 0.7 5.66 -1 6 C-1.042721 4.33388095 -1.04063832 2.66617115 -1 1 C-0.67 0.67 -0.34 0.34 0 0 Z " fill="#202020" transform="translate(293,112)"/>
<path d="M0 0 C1.32 0 2.64 0 4 0 C4 1.65 4 3.3 4 5 C2.35 5.33 0.7 5.66 -1 6 C-1.042721 4.33388095 -1.04063832 2.66617115 -1 1 C-0.67 0.67 -0.34 0.34 0 0 Z " fill="#2E2E2E" transform="translate(261,57)"/>
<path d="M0 0 C1.65 0 3.3 0 5 0 C4.67 1.65 4.34 3.3 4 5 C2.35 4.67 0.7 4.34 -1 4 C-0.67 2.68 -0.34 1.36 0 0 Z " fill="#2F2F2F" transform="translate(270,55)"/>
<path d="M0 0 C1.65 0.33 3.3 0.66 5 1 C4.34 2.65 3.68 4.3 3 6 C1.68 5.67 0.36 5.34 -1 5 C-0.67 3.35 -0.34 1.7 0 0 Z " fill="#252525" transform="translate(135,48)"/>
<path d="M0 0 C3.35620271 1.38877354 5.07298728 2.91677965 7 6 C7 6.66 7 7.32 7 8 C6.01 8 5.02 8 4 8 C3.34 6.35 2.68 4.7 2 3 C1.34 3 0.68 3 0 3 C0 2.01 0 1.02 0 0 Z " fill="#DBDBDB" transform="translate(158,219)"/>
<path d="M0 0 C1.65 0 3.3 0 5 0 C5 1.65 5 3.3 5 5 C3.35 5 1.7 5 0 5 C0 3.35 0 1.7 0 0 Z " fill="#212121" transform="translate(301,110)"/>
<path d="M0 0 C-3.20336822 2.83374881 -5.78087253 3.5205537 -10 4 C-9 1 -9 1 -6.6875 -0.25 C-3.90126985 -1.0275526 -2.66561622 -0.98726527 0 0 Z " fill="#EAEAEA" transform="translate(154,245)"/>
<path d="M0 0 C1.32 0 2.64 0 4 0 C4 1.65 4 3.3 4 5 C2.68 5.33 1.36 5.66 0 6 C-0.38218767 4.34385343 -0.71395102 2.67542976 -1 1 C-0.67 0.67 -0.34 0.34 0 0 Z " fill="#1E1E1E" transform="translate(126,51)"/>
<path d="M0 0 C0 3 0 3 0 3 Z M-4 4 C-3.34 4.33 -2.68 4.66 -2 5 C-2.8125 6.9375 -2.8125 6.9375 -4 9 C-4.99 9.33 -5.98 9.66 -7 10 C-7.66 9.01 -8.32 8.02 -9 7 C-6.625 5.4375 -6.625 5.4375 -4 4 Z " fill="#D9D9D9" transform="translate(161,236)"/>
<path d="M0 0 C-0.33 0.99 -0.66 1.98 -1 3 C-4.0625 4.1875 -4.0625 4.1875 -7 5 C-6.625 3.0625 -6.625 3.0625 -6 1 C-4 0 -4 0 0 0 Z " fill="#E3E3E3" transform="translate(123,256)"/>
<path d="M0 0 C-0.33 0.99 -0.66 1.98 -1 3 C-2.98 3.33 -4.96 3.66 -7 4 C-6.67 3.01 -6.34 2.02 -6 1 C-3 0 -3 0 0 0 Z " fill="#EBEBEB" transform="translate(126,225)"/>
<path d="M0 0 C-0.33 0.99 -0.66 1.98 -1 3 C-2.98 3.33 -4.96 3.66 -7 4 C-6.67 3.01 -6.34 2.02 -6 1 C-3 0 -3 0 0 0 Z " fill="#EBEBEB" transform="translate(138,220)"/>
</svg>
